<svg xmlns="http://www.w3.org/2000/svg" width="273" height="389" fill="#db6e35"><path d="M72.5 162.7c-2.5-2-2.9-3.3-1.2-5.7 1-1.5 0-1.8-1-2.3-5-3-10.5-5-16-6.7-5.4-1.8-11-3.2-16.2-5.5a20.2 20.2 0 0 1-3-1.5c-.8-.6-1.6-1.4-1.2-2.6.4-1.3 1.6-1.5 2.7-1.4a36.7 36.7 0 0 1 8 1.5c6.9 2.1 13.7 4.4 20.6 6.4 1.7.5 3.4 1.3 5.7.9l-6.9-4.4c-1.5-1.1-3.6-2.4-2.4-4.6 1.2-2 3.4-1 5-.4 4.3 1.5 8.1 3.9 10.3 8.1a3.5 3.5 0 0 0 2.2 1.7 25.2 25.2 0 0 0 6.2 1.7c-.5-1.8-1.9-2.4-3-3.2a127.5 127.5 0 0 0-29-16.3l-3.5-1.4c-.9-.4-2-.7-1.7-2 .5-1.4 1.7-.7 2.7-.5a186.4 186.4 0 0 1 23.5 8c2.3 1 4.7 1.7 7 2.6a10 10 0 0 0 7.7.3c2.3-1 4.2.2 6 1.3 2.5 1.3 4.8 3 7.4 4 3.3 1.3 5.7.7 7.9-2a34 34 0 0 0 2.2-3.4c3.7-6 5.6-6.8 12.3-5 .7.3 1.3.7 2 .4-3.3-4.7-16.8-9.2-23.7-8v.4c1 1.3 2.3 2.6 1.2 4.5-1.1 1.9-3 2.4-5 2.4a9.2 9.2 0 0 1-6-2.1c-1.4-1.2-2.3-2.8-1-4.6 1-1.7.1-2-1.2-2.4l-30-9.2a29.4 29.4 0 0 1-4-1.6c-1-.4-1.8-1.1-1.7-2.4 0-1.2 1.1-1.6 2.1-1.9a19 19 0 0 1 7.2 0c7.8 1 15.2 3.7 22.7 5.7l1.3.2c0-1.2-.9-1.5-1.5-2l-8.5-6.3c-.8-.6-2.1-1.3-1.3-2.7s2-.6 3-.1l8.5 4a3.9 3.9 0 0 0 2.6.7c-.5-1.4-1.6-2.3-2.4-3.3l-2.3-3c-.5-.8-1-1.7-.2-2.5.7-1 1.7-.7 2.6-.2l5.7 3a5.1 5.1 0 0 0 2.7.7c-1-.7-2-1.5-3.1-2.1l-21.6-12-3.3-2c-.9-.7-2.2-1.3-1.4-2.6.7-1.2 2-.5 2.8-.1l14.6 6.7 15 7.7a2.6 2.6 0 0 0 1.9.5c-.6-1.5-2-2.3-2.8-3.5-.7-1-2.4-2-1.2-3.4 1.2-1.3 2.6-.2 3.7.5l11 6.5c1.3.8 2.7 1.9 4.5 1.7-.2-1.2-1.1-1.7-1.8-2.3a109.5 109.5 0 0 0-31-19.4l-3.2-1.6c-.8-.4-1.5-1-1-2 .4-1 1.3-.8 2-.6 2 .5 3.7 1 5.6 1.7a106.3 106.3 0 0 1 25.1 12.7 67.3 67.3 0 0 0 10.8 6.4c1 .4 2.4 1 3.4.3 1-.9.4-2.2.1-3.4-.5-2-1.2-4-1.5-6-.6-3 1-4.4 3.9-3.6 7.2 2.3 10 6.1 9.8 12.7a58 58 0 0 0 0 7c.3 3.6 1.8 4.4 5 2.7l5.8-3.5c1-.5 2-1.1 3.2-.3a2.8 2.8 0 0 1 .8 3.3l-1.9 7a13 13 0 0 0-.5 5.6c.4 2.5 2 3.6 4.5 3a17.8 17.8 0 0 0 6.5-3.5 19.7 19.7 0 0 0 3.1-2.6c3.4-4 8-5 12.8-5.6a75.7 75.7 0 0 0 16-3.2l2.7-1.1a6.4 6.4 0 0 0-3.9-.9c-6.1-.3-12.3-.3-18.3-1.7a6.9 6.9 0 0 1-1.2-.3c-1-.4-2.4-.7-2.4-2.3 0-1.5 1.3-1.7 2.4-2 5.1-.8 10.3-1.5 15.4-2.4 3.9-.6 7.8-1.1 11.4-2.6.5-.2 1.2-.3 1.2-1 0-.8-.8-.6-1.3-.8-4.6-1.5-9.2-1-13.8-.3-5 .7-10 1.5-14.7 3.4-.9.4-1.8.4-2.2-.5-.5-1 .2-1.7 1-2.2 1-.8 2.5-1 3.4-2.1.4-.4.9-.8.6-1.5-.3-.6-1-.5-1.5-.5a19.9 19.9 0 0 0-6.1 2c-2 1-4 2.1-6.2 2.4-1 .2-2.2.3-2.8-.9-.6-1.3.3-2 1.3-2.7l5.6-3.5-.2-.6-6.5 1a47 47 0 0 1-20.2.3c-3-.8-6.3-1.7-6.8-5.8-.1-.7-.8-.9-1.4-1.1a16.2 16.2 0 0 1-5.4-3.1c-6.4-6-14.2-9.9-21.2-15-3.2-2.2-6.4-4.4-8.8-7.6-1.2-1.5-3-3.3-1.3-5.3 1.6-1.9 3.6-.5 5.2.4 6.6 3.6 13.7 6.2 20.1 10.2.4.3.9.7 1.7.3l-1.4-3.4a2 2 0 0 1 2.7-2.7l4.8 2.4a9 9 0 0 0-2.8-4.5 9 9 0 0 1-2-3.4c-.8-1.6 0-2.6 1.7-3-.6-1.1-1.7-1.3-2.6-1.7a19.4 19.4 0 0 1-6.3-4.4c-.7-.9-1.2-1.8-.6-2.9a2.3 2.3 0 0 1 2.8-.8l8.4 2c2.7.6 3.8 0 4.7-2.6a21.8 21.8 0 0 0 .5-9l-1.4-13.5c0-1.4-.6-3.5 1.4-3.7 2.2-.3 2.2 2 2.4 3.5.6 5.1.9 10.4 2.9 15.2.3.7.3 1.9 1.2 1.9.9 0 .7-1.1 1-1.8a13 13 0 0 1 1.8-3.3 2 2 0 0 1 2.3-.8 1.7 1.7 0 0 1 1.2 2c-.3 3.6-.7 7.3-4.6 9.2a1.8 1.8 0 0 0-.9.8l-2.6 6.5a10.6 10.6 0 0 0 5-2.5 17.4 17.4 0 0 1 4-2.8 1.5 1.5 0 0 1 2 .5 1.4 1.4 0 0 1-.4 1.9c-1 1-2.3 1.8-3.4 2.7-1.5 1.3-3.7 3-2.8 4.7.7 1.3 3.3-.2 5-.9 3.8-1.7 7.2-4.3 11.3-5.6a11.6 11.6 0 0 1 4-.5 2.2 2.2 0 0 1 2.2 1.3 2.4 2.4 0 0 1-.5 2.7 4.8 4.8 0 0 1-.7.7 56.3 56.3 0 0 1-16.2 8.6c-4.6 1.5-9.2.4-13.8-.3-.7-.1-1.5-.7-2 0-.3.6.4 1.2.6 1.8l.7 1.5a2.9 2.9 0 0 1-.4 3.2c-.8 1-2 .9-3 .6a22 22 0 0 1-2.4-.8c0 .4-.2.6-.1.8.4 1.2 1.2 2.6-.1 3.7-1.4 1.1-3 .8-4.3 0a324 324 0 0 0-19.6-9.6 8.5 8.5 0 0 0-2.3-.7c2.5 3.3 6.1 5.3 9.5 7.6 3.4 2.3 6.9 4.6 10.5 6.7 3.6 2.1 6.2 5.5 10 8-.4-2.7 1.2-3.9 2.5-5.3a56.4 56.4 0 0 0 3.8-4.7c.7-.9 1.4-1.9 2.6-1.7 1.4.2 2 1.3 2.3 2.5l.3 1.2c.4 2.2 1.5 2 2.8.7l3.7-3.7a14 14 0 0 1 2.6-2.1c1.9-1.1 3.5-.3 3.9 1.9a27.3 27.3 0 0 1 0 5.5c0 2.4.3 2.6 2.3 1.4l14-8.5a45.6 45.6 0 0 1 8.2-4.3c1.3-.5 2.8-1 3.7.5.8 1.5-.4 2.5-1.4 3.2-6.7 4.6-13.3 9.3-20 13.7-2.3 1.5-5 2.5-7.7 1-.9-.3-1.6.1-2.3.5a51.2 51.2 0 0 1-12.4 4.5c-.5 0-1.2 0-1.3.8 0 .6.7.8 1.2 1a25.5 25.5 0 0 0 12.3 1.3 139.6 139.6 0 0 0 24.7-4.8c2.9-.8 5.3-2.6 7.9-4a8.6 8.6 0 0 1 1-.6c1.5-.5 3.3-2.2 4.5-.2 1.2 2.1-1 3.2-2.4 4.2-2.3 1.5-5 2.2-7.6 3a16.3 16.3 0 0 0-6.3 3.9c1.2.5 2.2-.1 3.2 0 2 .2 3.9.7 4 3.2 0 1.6 1 1.1 1.8 1a57.7 57.7 0 0 1 15-1.7 21.2 21.2 0 0 1 8.6 2.2 2.8 2.8 0 0 1 1.9 2.5c0 1.3-1 2-2 2.4-4 2-8.4 2.5-12.7 3.3-3.5.7-7 1.1-10.5 1.7-.8.2-1.7 0-2.5 1a63.9 63.9 0 0 0 10 .9 56.2 56.2 0 0 1 9.6.7c1.6.3 3.3.6 3.5 2.4.3 1.8-1.5 2.4-2.9 3a69.3 69.3 0 0 1-14.4 3.6l-9 1.5a9.3 9.3 0 0 0-5 2.7 46.9 46.9 0 0 1-7.3 6.1 13.8 13.8 0 0 1-5.5 2.3c-4.5.6-7.2-1.6-7.4-6.2 0-3.1 1-6 1.8-8.9l1-3.6c-2.2.4-3.6 1.7-5 2.6-6.3 3.8-9.5 2.2-10-5l.1-7.2c.1-5.2-3-7.7-7.6-9.3-1.6-.5-2 .3-1.6 1.8.6 2.5 1.6 4.8 1.8 7.4.2 3.4-1.4 4.7-4.8 4-3.6-.9-6.5-3-9.6-4.8a9 9 0 0 0-3.2-1.4c2 1.8 4.2 3.5 6.2 5.5 1.5 1.4 4.1 2.9 2.6 5.2-1.5 2.4-4 .7-6 0-3.4-1.3-6.4-3.4-9.8-5.4.2 1.8 2.5 3 1 4.7-1.5 1.6-3.2-.3-4.8-.1 0 1 .9 1.3 1.3 2a2.4 2.4 0 0 1 .1 2.7 2.2 2.2 0 0 1-2.6.7 30.8 30.8 0 0 1-5.5-2.3c-.7-.4-1.4-1.1-2.8-.8l2.5 3.4c.8 1.1 1.6 2.3.6 3.5-.9 1.1-2.2.6-3.3.2l-1.3-.3c0 1.3 1 1.7 1.6 2.4a2.6 2.6 0 0 1 .5 3 2.2 2.2 0 0 1-2.5.9c-4.1-.5-8-2-12-3.3a79.6 79.6 0 0 0-15.6-3.4 3.3 3.3 0 0 0-3 .5c3.3 1.6 6.5 2.2 9.7 3.1 9 2.9 18 5.5 27 8.3a4.7 4.7 0 0 0 2.1.3 39 39 0 0 1 28.5 6.7c1.5 1 2.1.7 2.2-1a34.8 34.8 0 0 1 1.4-9.5 13.8 13.8 0 0 1 1.4-3c2.2-3.7 5.6-3.8 8.1-.4a11.7 11.7 0 0 1 2.2 5.8c0 1 .3 1.9 1.4 2.2 3.8 1.2 6.7 3.7 9.7 6.1l3.5 3c3.6 3 7.7 3.5 12.2 2.1 4-1.2 8-2.7 12.3-2.7 2.4 0 4.7.6 7.1-.2 3.3-1 5.9-2.9 8.6-4.7 4.7-3.1 9.4-6.4 14.9-8.1a5.6 5.6 0 0 1 .9-.4c1.6-.2 3.4-.6 4.6 1 1.2 1.6.5 3.2-.4 4.7a49.4 49.4 0 0 1-12.5 12.8 79.6 79.6 0 0 1-29.1 14.2c-4.6 1.1-6.6-1-5.8-5.6l1.3-4.9c-1.4.4-2 1.4-2.7 2.1a43.8 43.8 0 0 1-4.8 5c-3 2.3-5.6 1.7-7.2-1.6a16.9 16.9 0 0 1-1.1-3c-.6-2.2-2-2.4-3.8-1.4-1.7 1-3.4 1.8-5.2 2.6-4.5 2-8.2 1.6-11.2-2.4-3.6-4.8-8.7-5.9-13.8-7.2-2.4-.5-4 .5-5.3 2.4a59.6 59.6 0 0 1-3.8 5.8c-3 3.7-6.4 4.5-10.7 2.7A45 45 0 0 1 94 139a6.4 6.4 0 0 0-5.8-.9c-2.7 1-5.3.2-7.8-.7-2.2-.8-4.4-1.7-6.7-2.3 1.5 1.6 3.5 2.5 5.2 3.7a58 58 0 0 1 8 6 11.8 11.8 0 0 1 2 2.4c1.4 2.3.3 4-2.3 4a22.4 22.4 0 0 1-7.2-1.8 7 7 0 0 0-4.8-.3c-3.4 1-6.7-.6-10-1.2l-2-.5a3.4 3.4 0 0 0 2 1.4 51.3 51.3 0 0 1 9.7 5.1 3 3 0 0 0 2 .7c4.8-.4 9 1.5 13 3.6a6.5 6.5 0 0 1 1 .5c6.5 5 14.3 5.5 21.7 7a9.7 9.7 0 0 0 6-1.1 8.8 8.8 0 0 1 6.3-.9 4 4 0 0 0 3-.6 82.8 82.8 0 0 0 8.7-5.6 62 62 0 0 1 5.8-3.7c3.8-2 6.8-1.5 9.9 1.5l3.4 3.4a2.9 2.9 0 0 0 4.3 0l3-2.8c3-3 5.5-3.3 9.3-1.3l7.4 4.4c6.8 3.9 10.7 3.1 15.6-3l3.3-4c3-4 7.2-5.5 11.8-4.2 4.6 1.2 8 .3 11.3-3.4a26.7 26.7 0 0 1 12.7-8.3c1.8-.5 3.4-.5 4.6 1 1.3 1.4.8 3.1 0 4.6a18.5 18.5 0 0 1-14.3 9.1 15.4 15.4 0 0 0-10.8 5.5 46.9 46.9 0 0 1-12.4 10.2 24 24 0 0 1-21.9 1.4l-5-2a6.2 6.2 0 0 0-6 .8 5.2 5.2 0 0 0-.8.6c-5.8 5.7-12 5.8-18.8 2-2.7-1.5-5.2-1.2-7.6.7-.8.7-1.2 1.1 0 1.7a17 17 0 0 1 5.2 4.6c2.1 2.5 4.7 3 7.8 2 2.4-1 4.8-1.7 7.2-2.5 4.2-1.4 8-.6 11 2.6 1.4 1.4 2.6 2 4.6 1 2-1 4.2-.8 6.3-.4a3.9 3.9 0 0 0 3.2-.6 72.2 72.2 0 0 1 23.6-10.4c7.9-2 14.7-6.5 21.8-10.3a48.4 48.4 0 0 1 7.4-3.5c1.3-.4 2.6-.6 3.4.8.9 1.3.3 2.6-.7 3.6a15.4 15.4 0 0 1-4.4 3c-8.7 4.6-18 7.4-27.5 9.6-3.1.7-6.2 1.7-9.2 2.8-1.5.5-3.5 1.1-3.4 2.9 0 2 2.3 2.1 3.8 2.7a29.9 29.9 0 0 0 8.8 1c7.2.2 14.4-.8 21.5-1.9a54.1 54.1 0 0 1 11.4-.9c2.4.2 5.3.1 6 3 .7 3-1.8 4.4-3.9 5.7a21 21 0 0 1-12.4 2.7A107.6 107.6 0 0 1 218 187a26.4 26.4 0 0 0-8-.6 41 41 0 0 1-22.4-3.2c-3.4-1.6-5.6.7-8 2-1.1.5-.2 1.2.4 1.6a11 11 0 0 0 6.7 2.2h3.8a18 18 0 0 1 12.9 5 20 20 0 0 0 11 5.3 68 68 0 0 0 29.4-2.4c4.2-1.1 8.5-2.3 13-1.1a7.2 7.2 0 0 1 3.1 1.6 4.4 4.4 0 0 1-1.3 7.6c-3.7 1.4-7.4.6-10.8-.4a28.8 28.8 0 0 0-15.4-.2c-8.2 1.8-16 1.3-23.6-2.6-4.6-2.3-9.8-2.6-14.8-3.5s-10.2-1.4-14.9-3.6c-2.8-1.3-5.4-3-6.6-6a1.5 1.5 0 0 0-1.9-1 44.8 44.8 0 0 1-9.6 0c-.6 0-1.6-.3-1.8.7-.2.8.7 1.2 1.3 1.5 4.3 2 9 3.3 13.5 4.9 8.8 3 17.5 6 26.3 9.2a20.9 20.9 0 0 1 9.1 5.9c1.2 1.3 2.2 2.8 1.2 4.5-1 1.7-2.7 1.3-4.3.9-3.7-1-6.9-3-10.2-4.7a85 85 0 0 0-13.8-6c.2 1.2 1.1 1.6 1.8 2.1a112 112 0 0 1 9.6 8.3 11.8 11.8 0 0 1 3.4 4.6c.6 2-.3 3.2-2.3 3.2a8.9 8.9 0 0 1-4.1-1.1c-8.3-3.8-15.7-9-23.2-14l-7.7-5.2c-1.1-.8-1.8-.8-1.6.9a28.8 28.8 0 0 1 .2 3 2.5 2.5 0 0 1-1.4 2.7 2.7 2.7 0 0 1-2.9-.5 26.1 26.1 0 0 1-5.4-6.1l-4.7-7a8.8 8.8 0 0 0-2.6-2.5c-1.2-.7-2.4-.3-3.6.3-1 .5-1 1.5-1 2.5l1.4 19.6a69.8 69.8 0 0 1-.1 13.5c-.3 2-3.1 3.6-5 2.7-.9-.4-.8-1.4-.8-2.3 0-3 0-6 .3-9.1.8-7 .3-14 .5-21.1 0-.5.2-1.3-.4-1.4-.5-.1-1 .4-1.4.8-12.4 11.7-26.6 21-40.5 30.7a82.4 82.4 0 0 1-12.3 7.4 9.6 9.6 0 0 1-4.6 1.2 2.7 2.7 0 0 1-2.7-3.6 12.6 12.6 0 0 1 2.9-5 52.8 52.8 0 0 1 8.8-8.4c.9-.6 1.6-1.1 1-2.5-.9-1.5.2-2.8 1-4l6-8.2a8.2 8.2 0 0 0-3.7 1.7c-8 4.7-16 9.7-24.5 13.4a26 26 0 0 1-8 2.5c-1.6.2-3.3.4-4.3-1.2-1-1.8.1-3.3 1.2-4.6 2.9-3.5 6.6-6 10.4-8.4a12 12 0 0 0 3.1-2.6l-7.4 2.2a33 33 0 0 1-28.5-4.9 12 12 0 0 1-3.2-3c-1.1-1.6-.7-3 1.2-3.7a12.3 12.3 0 0 1 5.2-.5c7.3.2 14.7.6 22 .1a176.4 176.4 0 0 0 25.7-3.6 23 23 0 0 0 2.3-.8c-1-.8-2-.5-2.9-.5-10.2-.2-20.3-.4-30.3-3a20.4 20.4 0 0 1-8-3.5c-1.4-1.2-2.7-2.5-2.2-4.5.4-2 2.1-2.8 4-3.2 5-1 9.7.3 14.5 1.3 7.6 1.4 15 3.1 22.8 2.5a5.1 5.1 0 0 0 3.5-1.1 105.3 105.3 0 0 0-11.7-5.2 1 1 0 0 0-1.3.3c-2.8 3.6-6.6 3-10.3 2.3a23 23 0 0 1-9.1-4.2c-1.4-1-2.7-2.3-2.1-4.2.5-2 2.4-2 4-2.2l2-.1a7.1 7.1 0 0 0-3.2-1.8c-9.6-4.2-19.3-8.1-28.4-13.5a58.5 58.5 0 0 1-5.6-4c-1.1-1-2-2-1.4-3.6.7-1.4 2.1-1.1 3.4-1 3.5.5 6.5 2.1 9.7 3.5 7 3.2 13.6 7.5 21 9.7 6.8 2 13.8 3.2 20.3 6a3.7 3.7 0 0 0 1.4 0c.2.8 1 1 1.6 1.3l9.3 3.8c3.8 1.6 7.2.9 10.2-1.8 1.1-1 1.1-1.4 0-2l-6.5-3.7a25.9 25.9 0 0 0-7.4-2.8c-.8-.2-1.5-.3-1.6 1-.3 4-1.2 4.6-5.6 4.2Zm121.3 57c-1.2-2.5-3.3-4.2-5.3-6l-10.4-8.6c-.8-.6-1.8-1.5-1.1-2.8.7-1.5 2-1.4 3.3-1l7 2.3c6.1 2.2 11.6 5.6 17.4 8.2.9.4 1.7 1 2.7.4-.2-1-1-1.4-1.6-2a24.7 24.7 0 0 0-8-4.1l-34.4-12.2c-2.2-.7-4.4-1.5-6.1-3.2-2-2-1.3-4.5 1.4-5.3a10.2 10.2 0 0 1 4.3-.1 27.8 27.8 0 0 0 7.4-.3c1.4-.2 2-1 1.5-2.3-1.2-2.7-5.4-5-8.4-4.4a59.1 59.1 0 0 0-8.5 2.7c-4.6 1.6-8.4.8-11.5-3.1l-1.5-1.6c-2.2-2.5-4.8-3.1-7.8-1.7l-11.3 5.8c-.5.3-1.1.6-.7 1.2.8 1.4 0 3.4.8 4.1 1.2 1 2.5-1 4-1.3 1.3-.3 2.7-.9 3.7.3s.6 2.6 0 3.8a26.4 26.4 0 0 1-2.6 3.6 49 49 0 0 1-6.7 6.4c-7.5 6.1-15.9 11-24.2 16A103.2 103.2 0 0 0 80 227.2a29.5 29.5 0 0 0-5.1 6c-.3.4-.7.8-.3 1.3.4.5.8 0 1.3 0a23.7 23.7 0 0 0 5.3-2.8 419.7 419.7 0 0 0 49.6-36.4c1.6-1.4 3.3-2.6 3.7-4.9 0-.5.1-1.2.9-1.2.6 0 .5.6.7 1 .3.8.8.7 1.4.5 3.6-1.3 6.1.4 8.2 3.2 2.1 2.8 4 5.7 6.2 8.5a9.1 9.1 0 0 0 3.6 3.4v-2c-.2-1.6-1.2-3.6.8-4.7 1.8-1 3.3.4 4.8 1.2l2.5 1.6c6.1 4 12.2 8.1 18.4 12a47.5 47.5 0 0 0 11.8 6ZM21.2 147l1.5 1c7 4.7 15 7.7 22.5 11.2 8.5 4 18 6 25.4 12.2a3.6 3.6 0 0 0 1.1.5 117.2 117.2 0 0 1 16.5 7.2 3.1 3.1 0 0 0 3 .2q4.2-1.8 8.6-3.4a9.4 9.4 0 0 1 9.4 1.2c3.5 2.6 7.2 2.6 11.1 1 4.1-1.6 7.8-4 11.8-5.8 1.2-.6 1-1 0-1.6-1.7-.8-3.3-1.6-4.9-2.6a3.9 3.9 0 0 0-3.4-.4 36 36 0 0 1-22.4-.3c-2.4-.8-4.4-.7-6.2 1-4.5 4-9.3 3.8-14.5 1.6-4.5-2-9-4-13.7-5.9-6-2.4-12.3-3.2-18.4-5.3-7-2.3-13.4-6.4-20.1-9.5-2.3-1.1-4.5-2.4-7.3-2.3Zm67.4 67.8a70 70 0 0 0 9.6-7.2c7.4-6.3 14-13.3 21.9-19.1.7-.5 2.1-.7 1.5-2.3-.6-1.4-.8-3.1-3-3.3a11 11 0 0 0-4.2.3c-6.8 2-12.7 5.9-19.7 8.5 1.3.6 2.6.3 2.8 1.6 0 1.3-1 1.8-1.9 2.2l-10.8 5.1c-9 4-18 8.1-25.9 14a28.4 28.4 0 0 0-5 4.7c-.4.4-1 .8-.6 1.4s1 .3 1.5.2a21.8 21.8 0 0 0 5.7-1.8c7.7-3.2 14.8-7.5 22-11.7a84 84 0 0 1 8.6-4.7c1.2-.6 2.6-1.2 3.7 0 1.2 1.4.1 2.6-.6 3.7L90 212a5.1 5.1 0 0 0-1.5 2.8Zm101-48.2c9.8-.7 16.9-7.7 23.7-14.8.5-.4.3-.7-.3-1a11.4 11.4 0 0 0-13 2.6c-2 2.4-3.8 5.1-6.2 7.3a10.8 10.8 0 0 1-10.8 2.7c-4-1.1-7.3-3.5-10.8-5.6-4.4-2.7-5.6-2.5-9.1 1l-1.4 1.4c-3.2 2.8-5.8 2.8-9 0l-2.5-2.6c-2.8-2.7-4.5-3-7.9-1l-12 8.2c-.7.4-1 .8-.3 1.5 2 1.8 6.4 2.8 8.5 1.2 4.4-3.1 8.6-2.8 13-.4a10 10 0 0 0 12.6-1.5c4-3.8 8.6-4.1 13.5-1.8a28 28 0 0 0 12 2.8Zm-20-31.2c-3-.1-5 .7-7.2.2-3.9-.7-7-3-9.8-5.6a40.5 40.5 0 0 0-8-5.8c-1.2-.7-2.4-1-3 .9a2.9 2.9 0 0 1-3.3 2 2.4 2.4 0 0 1-2.1-2 3.5 3.5 0 0 1 1.5-3.8c2.4-1.7 2.6-2.6 1.2-5.4-.5-1.1-1-2.5-2.6-2.5s-2 1.4-2.5 2.5a29 29 0 0 0-1.7 9.7c-.1 2.2-.2 4.4-2.6 5.8 1.4 1.1 3 1.5 4.1 2.7l3.4 3.7a6.5 6.5 0 0 0 8.3 1.6c2-.9 3.8-2 5.8-2.7 3.3-1.4 5-.6 6.5 2.6l1.3 3.1c.6 1.4 1.6 1.8 2.9.8 2.7-2.2 4.7-5 7.7-7.8ZM182 132a46.2 46.2 0 0 0-4.9.8c-2 .5-4.5.4-3.2 4 .7 2-.7 4.2-1.2 6.3-.6 2.5 0 3 2.5 2.7a14.3 14.3 0 0 0 2-.5 80.3 80.3 0 0 0 14.5-5.9 66.5 66.5 0 0 0 22.5-17.6c.6-.9 2-2 1-3-.7-.9-2-.1-3 .2a58.9 58.9 0 0 0-12.2 6.8c-5.5 3.8-10.8 8.1-18 6.2Zm-99 64.2a3 3 0 0 0-2.3-.1 148.8 148.8 0 0 1-40 3.3c-3.7-.3-7.4-.4-11-.5-.8 0-1.8-.3-2.1.7-.3.9.6 1.4 1.2 1.9a31 31 0 0 0 20.8 6.5c12-.9 22.2-7.1 33.4-11.8ZM76 189a112.2 112.2 0 0 0 11.5-.1 16.4 16.4 0 0 0 4.5-.7c.8-.3 1.4-.5 1-1.5-.7-1.6-4.2-3.5-6-3a46.5 46.5 0 0 1-14.8.8c-6-.5-11.8-2-17.7-3.2-3.4-.7-6.9-1.5-10.4-1-1 0-2.3.1-2.5 1.4-.2 1.1.8 1.6 1.6 2.2a20 20 0 0 0 6.6 2.6c8.6 2.1 17.4 2.3 26.2 2.5ZM150 60.3l-6 5.7c-3.1 2.4-5.1 1.8-6.5-1.7-.6-1.5-1-1.3-1.9-.3-1 1.3-2.3 2.4-3.3 3.8-1.8 2.4 1.6 3.4 1.7 5.3.1 1 .8 1.2 1.6 1h.2a56 56 0 0 0 13-4.7c.7-.3 1.2-.7 1.2-1.4v-7.7Zm68.5 123.1v.8c7.5 1.3 15 3.6 22.7 1a10.9 10.9 0 0 0 4.1-2.3c1.2-1.1 1-2-.6-2.3a12.9 12.9 0 0 0-2.8-.3c-4.7 0-9.2 1-13.8 1.7l-9.6 1.4Zm-115.5-5.2c-2.8.2-5.7 2-8.8 3.2-1.1.4-.5 1 0 1.6a7.8 7.8 0 0 1 2.7 3.6c.3 1 .9 1 1.6.7l10.9-5c.4-.2 1.2-.7.4-1.2-2-1.2-3.6-3-6.8-2.9Zm132-39.9a2.5 2.5 0 0 0-.7.1c-5 1.8-8.7 5.4-12.3 9-.2.2-.4.7-.1.8a1.7 1.7 0 0 0 1 .2 21.3 21.3 0 0 0 7.3-2.4c2.6-1.4 4.9-3.1 6.2-5.8.7-1.3.4-2-1.4-1.9ZM128 187.6a70 70 0 0 0-22.4 18.1c8-5 16.1-10 22.4-18.1Zm6-164a34.2 34.2 0 0 1-.9 6.7c-1.2 4.5-4 6.1-8.4 5l-3.6-.7c2 1.7 4.4 2.3 6.4 3.8s3.3 1.3 4.7-.8c1.1-1.7 1.9-3.6 3-5.5 1.6-2.8 1.4-5.5-1.2-8.5Zm109.3 176.7c3.5 1.1 7 2.5 10.7 2.5 1.8 0 4 .5 4.7-2 .4-1.4-2-2.8-4.9-2.7a29.6 29.6 0 0 0-10.5 2.2Zm-43.2-4.3a8.5 8.5 0 0 0-5-3.3 25.2 25.2 0 0 0-8-.7 14.1 14.1 0 0 1-10.4-3.8c-.4-.3-.6-.7-2-.4 7.4 7.2 16.8 6.3 25.4 8.2ZM52.7 170.8c3.8 3 8 5 13 4.6a2.2 2.2 0 0 0 1-.3c.2-.2.6-.5.7-.8.1-.4-.3-.7-.7-.8-4.5-1.6-9-3.2-14-2.7Zm150.6 12.4-3.4-1c-2-.6-4.3-1.1-5-3.1-1.2-2.8-2.4-2-4-.8l-1.2.8c-.4.3-1 .5-1 1.2.2.5.8.6 1.2.7l8 2.3a8 8 0 0 0 5.4 0ZM138 45.6c-1-1.6-1.9-2.5-1.7-3.8.2-1.6-.3-1.8-1.7-1.3a7 7 0 0 0-2.8 1.7 3.5 3.5 0 0 1-3.2 1.2c-.7-.1-1.6-.3-2.3.8 3.7.6 7.5.4 11.7 1.3Zm-39 81.7c.8 0 2.2.3 2.6-.8.4-1.4-1.1-1.7-2-2.2a7.7 7.7 0 0 0-2-1 2.5 2.5 0 0 0-3 1.3c-.5 1.4.9 1.6 1.7 2.1a5.2 5.2 0 0 0 2.7.6ZM55 145a57.8 57.8 0 0 0-14-4.4c4.5 2 9.3 3.2 14 4.4ZM156.8 38.5c-3.4.9-6.3 2.9-10 4.9 2.7-.4 7.8-3 10-5Zm-17-12.5a6.2 6.2 0 0 0 1.7-5.2A8.5 8.5 0 0 0 140 26ZM70.6 142a8.6 8.6 0 0 0-5-3 11.5 11.5 0 0 0 5 3Z"/><path d="M109.3 84.8a13.5 13.5 0 0 0-1.4-6c-.9-2-2-3.8-3-5.7-2-3.7-4-7.5-6.8-10.5a.9.9 0 0 0-1.6.6c.2 3.8 2 7.1 3.9 10.2l3 4.9a33.8 33.8 0 0 0 2.5 4.8 1 1 0 0 0 1.2.4.9.9 0 0 0 .4-1.3 29.8 29.8 0 0 1-2.5-4.5c-.8-1.7-1.9-3.2-2.8-4.8-2-3-3.8-6.1-3.9-9.7l-1.5.6c2.8 2.9 4.6 6.5 6.5 10 1 1.7 2 3.5 2.8 5.4a12.3 12.3 0 0 1 1.4 5.6c0 1.2 1.7 1.2 1.8 0ZM100 79.3a395 395 0 0 0-7.3-10.5l-3.7-5a9.1 9.1 0 0 0-4-3 .9.9 0 0 0-1.2.8 23.8 23.8 0 0 0 10 16.8c1 .7 2-.9 1-1.5a22 22 0 0 1-9.2-15.3l-1.1.9a8.4 8.4 0 0 1 3.6 3l3.5 4.8 6.8 9.9c.6 1 2.2 0 1.5-.9Z"/><path d="M94.7 77.3c-5-.9-10.3-1.7-15.1.1a.9.9 0 0 0-.4 1.5 5.5 5.5 0 0 0 3.8 1.6l5.1.5A93.5 93.5 0 0 1 99 83c1 .2 1.5-1.5.4-1.8A97.9 97.9 0 0 0 89 79.3l-5.2-.5c-1.2-.1-2.5-.2-3.4-1.2l-.3 1.5a27 27 0 0 1 14.1 0c1.2.1 1.6-1.6.5-1.8Z"/><path d="M103.3 82c-6.7 0-13.4 0-20 1.5A.9.9 0 0 0 83 85c3 2.5 7 2.6 10.7 2.6l6 .1a16.5 16.5 0 0 0 5.9-.2.9.9 0 0 0-.5-1.7 15.2 15.2 0 0 1-5.4.1h-5.6c-3.2 0-7.2 0-9.9-2.1l-.4 1.5c6.4-1.5 13-1.5 19.5-1.6a.9.9 0 0 0 0-1.7ZM112.3 86.2a22.9 22.9 0 0 1-2.6-8.7c-.2-1.5-.3-3-.3-4.6 0-1.4-.4-3 .3-4.4l-1 .4c-.1 0 0 0 0 .1l.2.6a23 23 0 0 1 .8 3.2 32.6 32.6 0 0 1 .5 4.4 86.7 86.7 0 0 1-.2 8.9c0 1.1 1.7 1.1 1.8 0a77.6 77.6 0 0 0 0-10 32.5 32.5 0 0 0-.6-5l-.7-2.2c-.2-.7-.5-1.5-1.3-1.7a1 1 0 0 0-1 .4c-.8 1.5-.7 3.3-.6 5l.3 5a25 25 0 0 0 2.8 9.5.9.9 0 0 0 1.6-.9ZM174.7 109.4a116.9 116.9 0 0 1 20.6 4.5 20.9 20.9 0 0 1 2.3.7 2.6 2.6 0 0 1 .6.5v-.2h-.5a43.7 43.7 0 0 1-4.9-.3 67.3 67.3 0 0 1-10-1.9 67.9 67.9 0 0 1-10.9-3.9 1 1 0 0 0-1.2.4.9.9 0 0 0 .3 1.2 70.5 70.5 0 0 0 22 6l2.8.2a11.2 11.2 0 0 0 2.6 0 1.8 1.8 0 0 0 1.6-1.5 2 2 0 0 0-1.2-1.8 11 11 0 0 0-2.5-1l-2.8-.8q-2.8-.9-5.7-1.6a120.4 120.4 0 0 0-13.1-2.3.9.9 0 0 0-1 .9 1 1 0 0 0 1 .9ZM188 106c4 1.2 8.2.8 12.3 1 3.6 0 7.3.4 10.2 2.6l.4-1.6a80.6 80.6 0 0 1-24.6-3 .9.9 0 0 0-.4 1.8 82.3 82.3 0 0 0 25 3 .9.9 0 0 0 .5-1.7c-6.7-5-15.5-1.6-22.9-3.8-1-.4-1.5 1.3-.5 1.7ZM199.3 101.6q10.1.3 20.3 1l-.4-1.6a14.5 14.5 0 0 1-5.2 1l-5.8.2-11.7.1a.9.9 0 0 0 0 1.8 339.7 339.7 0 0 0 18.2-.4 15.2 15.2 0 0 0 5.4-1.2c.8-.4.3-1.6-.5-1.6q-10.1-.8-20.3-1a.9.9 0 0 0 0 1.7ZM167.6 113.4q10.4 2.9 20.5 6.7v-1.7c-8 2.5-16.4-.4-24-3-1.1-.5-1.6 1.3-.5 1.6 8 2.8 16.6 5.7 25 3a.9.9 0 0 0 0-1.6q-10.1-3.9-20.6-6.7a.9.9 0 0 0-.4 1.7Z"/><path d="M164.1 113.2a45.4 45.4 0 0 1 4-14.4h-1.6a7 7 0 0 1 1 4 15.1 15.1 0 0 1-.3 3.9 15.5 15.5 0 0 1-3.8 7c-.8.9.4 2.1 1.2 1.3a17.2 17.2 0 0 0 4.3-8 16.9 16.9 0 0 0 .4-4.6 8.4 8.4 0 0 0-1.2-4.5.9.9 0 0 0-1.5 0 48 48 0 0 0-4.2 15.3.9.9 0 0 0 .9.9 1 1 0 0 0 .8-.9Z"/><path d="m169 111 3.2-3.4a11.5 11.5 0 0 1 3-2.5 12.5 12.5 0 0 1 3.7-1.1l2-.3a4.1 4.1 0 0 1 2 0l-.6-1.3c-.5.8-1.5.9-2.3 1a27 27 0 0 0-3.4.9 17.3 17.3 0 0 0-6.2 3.3c-.8.8.4 2 1.3 1.3a15.8 15.8 0 0 1 6.3-3.2c2-.5 4.6-.5 5.8-2.4a.9.9 0 0 0-.5-1.3 4.7 4.7 0 0 0-2.2-.1c-.8 0-1.5.2-2.3.3a15.2 15.2 0 0 0-4.1 1.2 11.8 11.8 0 0 0-3.5 2.7l-3.4 3.7c-.7.8.5 2 1.3 1.2ZM82.6 115.8a156.7 156.7 0 0 0-21.7-1.3.9.9 0 0 0-.7 1.4c.8 1.7 3.4 1.7 5 2l7 1 7 1a37 37 0 0 0 7 .5c1.2-.1 1.2-1.9 0-1.8-4.3.2-8.7-.7-13-1.4l-6.5-1c-1 0-2.1-.2-3.2-.4-.7 0-1.5-.2-1.8-.8l-.8 1.3a156.7 156.7 0 0 1 21.7 1.2.9.9 0 0 0 .9-.9 1 1 0 0 0-.9-.8Z"/><path d="M90.7 119.6q-13.6.3-27 1.6c-1 .1-1.4 1.5-.3 1.8a98.4 98.4 0 0 0 23.1 2.8q3.4 0 6.7-.2c1.2 0 1.2-1.8 0-1.7a96.3 96.3 0 0 1-22.9-1.3q-3.2-.5-6.4-1.3l-.3 1.7q13.5-1.4 27-1.6a.9.9 0 0 0 0-1.8ZM114.8 121a25 25 0 0 0-10.4-5.4c-1.9-.6-3.8-1-5.7-1.4s-4.1-1-6 0a.9.9 0 0 0-.2 1.5c2 1.7 4.5 1.7 6.9 2.3 2.4.7 4.2 2.7 6.8 3.1a1 1 0 0 0 1-.6.9.9 0 0 0-.5-1c-2.4-.4-4.2-2.4-6.5-3.1-2-.6-4.7-.4-6.4-2l-.2 1.4a3.9 3.9 0 0 1 2.6-.3l2.7.6c1.8.3 3.5.7 5.3 1.2a23 23 0 0 1 9.3 5c.8.7 2.1-.6 1.3-1.3Z"/><path d="M115.3 121a35.4 35.4 0 0 0-5.8-8.2 33 33 0 0 0-3.7-3.4 11.6 11.6 0 0 0-4.4-2.3.9.9 0 0 0-.5 1.7c1.8.5 3.6.5 5.4 1 1.7.7 2.9 2 4 3.4a23 23 0 0 1 5.6 9 .9.9 0 0 0 1.7-.4c-1-3.8-3.4-7-6-9.9a12.1 12.1 0 0 0-4.5-3.6c-1.8-.7-3.8-.7-5.7-1.2l-.5 1.7a10.3 10.3 0 0 1 4 2.2 33.5 33.5 0 0 1 8.8 10.9c.6 1 2.1 0 1.6-1Z"/><path d="M120 122.8c-1-3.2-2.8-6-4-9.1a33 33 0 0 1-2.1-10l-1.3.8c2.7 1.2 3.7 4.5 4.3 7.2a35 35 0 0 1 .7 5.5 19.8 19.8 0 0 0 .8 5.4c.4 1 2.1.6 1.8-.5a21 21 0 0 1-.9-5.6 34.3 34.3 0 0 0-.9-6c-.7-2.9-2-6.2-5-7.5a.9.9 0 0 0-1.3.7 34.7 34.7 0 0 0 2.1 10.2c1.2 3.2 3.1 6.1 4 9.4a.9.9 0 0 0 1.7-.5ZM119.7 124.7a17 17 0 0 0-10.6 1.7c-.7.4-1.3 1.2-.8 2s1.6.9 2.4 1a14.8 14.8 0 0 0 5-.7 13.7 13.7 0 0 1 5.5-.7c1.1.2 1.6-1.5.5-1.7a15.2 15.2 0 0 0-6.3.7 21.8 21.8 0 0 1-3 .6 8.7 8.7 0 0 1-1.5 0 5 5 0 0 1-.7-.1 3.4 3.4 0 0 0-.4 0c-.2-.1 0-.3 0 0v.5l1-.4 1-.4a16 16 0 0 1 2.5-.7 14.9 14.9 0 0 1 4.9-.1 1 1 0 0 0 1-.6.9.9 0 0 0-.5-1.1Z"/><path d="M121 127.8a6.2 6.2 0 0 1 1.5 0h-.2a6.3 6.3 0 0 1 .7.2 1 1 0 0 0 .7-.1.9.9 0 0 0-.2-1.7 6.9 6.9 0 0 0-2.4-.2 1 1 0 0 0-.7.3.9.9 0 0 0 0 1.3.9.9 0 0 0 .7.2ZM201.1 137.6c6.5-1.4 13 1 19 3.3V139c-3.4 1-7 .7-10.4.2-3.7-.4-7.3-1-11-1.7-1-.2-1.5 1.5-.4 1.7l11.4 1.8c3.6.5 7.3.8 10.9-.2a.9.9 0 0 0 0-1.7c-6.4-2.4-13.1-4.8-20-3.3-1 .2-.6 2 .5 1.7ZM206 132.8c3 0 5.9-.8 8.8-1.2a19.4 19.4 0 0 1 4-.2 10.6 10.6 0 0 1 2 .4l1 .2a3.4 3.4 0 0 1 .4.2s.2.2.2 0l.6-.8c-6 1.3-12.1.2-18.1 1.2a.9.9 0 0 0-.7 1 1 1 0 0 0 1.1.7c6-1 12.2.1 18.2-1.2a.9.9 0 0 0 .7-.8c-.2-1.7-2.1-2.1-3.5-2.4a16.1 16.1 0 0 0-4.7-.2c-3.3.3-6.6 1.3-10 1.3a.9.9 0 0 0 0 1.8ZM215 124.3a68.2 68.2 0 0 1 6.8-2.2 13.5 13.5 0 0 1 3.4-.3 8.2 8.2 0 0 1 1.6.2 2.7 2.7 0 0 1 1.5.6l.3-1.5a108 108 0 0 1-16 3.6.9.9 0 0 0-.6 1 1 1 0 0 0 1 .7 108 108 0 0 0 16.1-3.6.9.9 0 0 0 .4-1.5 5.4 5.4 0 0 0-3.4-1.3 13.2 13.2 0 0 0-3.9.2 53.9 53.9 0 0 0-7.7 2.4c-1.1.4-.6 2 .4 1.7ZM191.2 142.5a35.1 35.1 0 0 1 15.9 2.6v-1.7a18.4 18.4 0 0 1-9 .8 94.5 94.5 0 0 1-9.4-2.4.9.9 0 0 0-.4 1.7 83 83 0 0 0 9.7 2.5 20.2 20.2 0 0 0 9.6-1 .9.9 0 0 0 0-1.6 36.3 36.3 0 0 0-16.4-2.6c-1.1 0-1.1 1.8 0 1.7Z"/><path d="M182.2 144.1c.2-2.5 2.4-4.5 4.6-5.6 2.8-1.5 6-2 8.8-3.4l-1.2-1.2a16.5 16.5 0 0 1-6.7 6.2c-2.6 1.3-5.5 2.3-7.5 4.6a1 1 0 0 0 0 1.2.9.9 0 0 0 1.3 0c2-2.3 5-3.2 7.5-4.5a18 18 0 0 0 7-6.6c.4-.8-.5-1.5-1.3-1.2-3 1.4-6.5 2-9.4 3.7-2.5 1.5-4.6 3.8-4.9 6.8 0 1.2 1.7 1.2 1.8 0ZM199 136c1.3-1.8 1.8-4 2.7-6a5.5 5.5 0 0 1 1.7-2.2c1-.8 2.3-1 3.2-2l-1.5-.8a727 727 0 0 1-2.4 6.5l-1.3 3c-.3.8-.9 1.7-1.8 1.7-1.1 0-1.1 1.9 0 1.8 2.7-.1 3.6-3 4.4-5l2.9-7.6c.3-.8-1-1.4-1.5-.8-.9.8-2.1 1-3.1 1.8a6.9 6.9 0 0 0-2 2.5c-1 1.9-1.3 4.1-2.6 5.8a1 1 0 0 0 0 1.2.9.9 0 0 0 1.2 0ZM159.1 66l1.6-9.6c.4-2.6.9-5.3 2.5-7.4H162c.7.7.5 1.9.3 2.8l-.9 4.2a57.5 57.5 0 0 1-2.6 8.3.9.9 0 0 0 .6 1 1 1 0 0 0 1-.5 58.4 58.4 0 0 0 3-9.2 41.3 41.3 0 0 0 .8-4.4 4 4 0 0 0-1-3.5.9.9 0 0 0-1.3 0c-1.7 2.3-2.4 5-2.9 7.8l-1.6 10c-.2 1.1 1.5 1.6 1.7.5ZM164.5 62.2l6.7-18.4-1.3.5c1.1.9 1.6 2.7 1.8 4a3.8 3.8 0 0 1-.2 2.6 20.9 20.9 0 0 1-1.4 2.3l-6.4 9.9c-.6 1 1 1.8 1.5.9l7.2-11a7.1 7.1 0 0 0 1.2-2.7 7.2 7.2 0 0 0-.3-3 7.7 7.7 0 0 0-2.5-4.5.9.9 0 0 0-1.3.5l-6.7 18.4c-.4 1 1.3 1.5 1.7.5ZM173 60.8c4.2-1 9-2.1 13-.2l-.1-1.4a4.7 4.7 0 0 1-2.8.8q-2 0-3.9.2h-7.8a.9.9 0 0 0 0 1.8h8.5l4-.3a5.7 5.7 0 0 0 3.2-1.2.9.9 0 0 0-.2-1.4c-4.6-2.2-9.7-1.1-14.4 0-1.1.3-.6 2 .5 1.7Z"/><path d="M165.6 64.8a33.7 33.7 0 0 1 15.4 2l-.2-1.6a19.2 19.2 0 0 1-9 2c-3.4 0-6.6-1-9.9-1a.9.9 0 0 0 0 1.7c3.5 0 6.8 1 10.3 1a21.1 21.1 0 0 0 9.5-2.2c.7-.4.4-1.4-.3-1.6a35 35 0 0 0-15.8-2 1 1 0 0 0-1 .8.9.9 0 0 0 1 1ZM153.6 73.1a68.4 68.4 0 0 0 7.3 2.2c2.3.5 4.9 1.3 7.2.6 1-.3 2-1.3 1.3-2.4a5.2 5.2 0 0 0-2.7-1.8 26.3 26.3 0 0 0-7.2-1.4 30.8 30.8 0 0 0-8.5.6c-1 .3-.6 2 .5 1.7a28.7 28.7 0 0 1 12.3.1 16 16 0 0 1 2.8.9l1.2.7s.2.2.1 0c0-.3 0-.1-.1-.2a3.8 3.8 0 0 0-.8.2c-2 .3-4-.4-6-.8a68.2 68.2 0 0 1-6.9-2c-1-.5-1.5 1.3-.5 1.6ZM84.5 89.7c-3.1-.9-6.3-1.9-9.5-2.5a16 16 0 0 0-8.6.4 10.7 10.7 0 0 0-1.8.9c-.5.3-1.4.8-1.6 1.4-.4 1.5 2 2.1 3 2.4a40.8 40.8 0 0 0 9 1l11.3.7c1.1 0 1.1-1.7 0-1.8l-11.6-.6-5.4-.4a18.9 18.9 0 0 1-2.4-.5 13 13 0 0 1-1.2-.3c-.2-.1-1-.3-1-.5v.4-.1l-.2.6c2.4-2.1 5.8-2.4 8.8-2A77 77 0 0 1 84 91.4a.9.9 0 0 0 .5-1.7Z"/><path d="M87 92.3a65.1 65.1 0 0 0-9.5.3 26.3 26.3 0 0 0-4.5.9 5.1 5.1 0 0 0-3.1 2 .9.9 0 0 0 .8 1.4A93.6 93.6 0 0 0 92 95.7c1.1-.2.6-2-.5-1.7A91.5 91.5 0 0 1 70.7 95l.7 1.4a4.1 4.1 0 0 1 2.7-1.5 26.6 26.6 0 0 1 4.3-.7A71.9 71.9 0 0 1 87 94a.9.9 0 0 0 0-1.8ZM117.8 53.3c-.8-2-1.6-3.8-2.6-5.6a27.9 27.9 0 0 0-3-5c-.6-.7-1.4-1.6-2.3-1.3a1.9 1.9 0 0 0-1.1 1.9 11.2 11.2 0 0 0 1.3 5.2 19.8 19.8 0 0 0 3.7 5 .9.9 0 0 0 1.3-1.3 18.5 18.5 0 0 1-3.4-4.5 10.5 10.5 0 0 1-1-2.5 7.8 7.8 0 0 1-.1-1.4 4.3 4.3 0 0 0 0-.7c0-.2.3-.2-.3-.1-.3 0-.3 0-.1.2l.3.2a6.7 6.7 0 0 1 .5.6 12.7 12.7 0 0 1 .8 1.2l1.5 2.7a59 59 0 0 1 2.8 5.9 1 1 0 0 0 1 .6.9.9 0 0 0 .7-1ZM108.6 48.7a26.4 26.4 0 0 0-7.4-11.4c-.8-.7-1.8-2-3-1.3s-.7 2.2-.3 3.2a25.6 25.6 0 0 0 3.4 5.9 26 26 0 0 0 5.6 5.3c1 .7 1.8-.9.9-1.5a24 24 0 0 1-7.3-8.4 19.6 19.6 0 0 1-1.2-2.5v-.4h-.4l.5.4 1.1 1a24.4 24.4 0 0 1 3.6 4.4 24.7 24.7 0 0 1 2.8 5.8c.3 1 2 .6 1.7-.5ZM109 57.6c-3.4-2-7.4-3-11.3-3.7-3.7-.7-7.9-1.6-11.4.3a.9.9 0 0 0 0 1.5 8.7 8.7 0 0 0 4.3 1.3 49 49 0 0 0 5.2.3h10.3a.9.9 0 0 0 0-1.9l-9.8.1c-1.6 0-3.3 0-4.9-.2a8.2 8.2 0 0 1-4.2-1v1.4c3.2-1.7 7.1-.7 10.4 0a32.8 32.8 0 0 1 10.6 3.5.9.9 0 0 0 .9-1.6Z"/><path d="M115.6 62.8a35.5 35.5 0 0 0-13.8-4.5c-1 0-2.7-.3-2.8 1.1 0 1 1.2 2 2 2.5a16.2 16.2 0 0 0 6 2.1l9 2c1.2.2 1.6-1.5.5-1.7l-9.5-2a23.1 23.1 0 0 1-3.5-1 5 5 0 0 1-2.8-2.1l.1.4-.3.4h.2a1.4 1.4 0 0 0 .3 0l1 .1 2 .3a34.2 34.2 0 0 1 3.7.9 33.5 33.5 0 0 1 7 3 .9.9 0 0 0 1-1.5ZM120 90.2a35.8 35.8 0 0 1-2.6-6.5 16.7 16.7 0 0 1-.6-3.3c0-.4-.3-2.6.3-2.7h-.4c-.2 0-.1 0 0 .2l.1.3.5.8.8 1.5a12 12 0 0 1 1 3.2 11.7 11.7 0 0 1 0 3.5l-.5 4a1 1 0 0 0 .6 1 .9.9 0 0 0 1-.6l.5-3.6a19.6 19.6 0 0 0 .3-3.4 14.1 14.1 0 0 0-2-6.1l-.7-1.4a2.1 2.1 0 0 0-1-1c-1-.4-1.9.7-2.1 1.6a8.8 8.8 0 0 0-.1 3 19.4 19.4 0 0 0 .5 3.3 37.3 37.3 0 0 0 3 7c.4 1.1 2 .2 1.5-.8ZM103.5 164.8a29.3 29.3 0 0 0-8-10.4 3.4 3.4 0 0 0-2.9-1.1 2.1 2.1 0 0 0-1.5 2.3 4.8 4.8 0 0 0 1.7 2.7q1.1 1.2 2.4 2.3a37.2 37.2 0 0 0 6.3 4.5.9.9 0 0 0 .9-1.5 34.7 34.7 0 0 1-8.8-7c-.2-.3-1.1-1.3-.5-1.6l.7.3a7.4 7.4 0 0 1 1 .9 52.3 52.3 0 0 1 3.8 3.9 18.7 18.7 0 0 1 3.2 5.1 1 1 0 0 0 1 .7.9.9 0 0 0 .7-1.1ZM113 166a20.2 20.2 0 0 0-11.2-14 .9.9 0 0 0-1.3.5c-.5 1.6.3 3.2 1.2 4.5l2.9 3.8a21.2 21.2 0 0 0 7 6c1 .4 2-1.1 1-1.6a19.4 19.4 0 0 1-6.4-5.2c-.9-1-1.7-2.2-2.5-3.3-.8-1-1.9-2.4-1.5-3.8l-1.3.6a18.5 18.5 0 0 1 10.4 13c.2 1.2 2 .7 1.7-.4ZM122.5 163.7a65.2 65.2 0 0 0-4.5-7.9 17.3 17.3 0 0 0-5.8-5.6.9.9 0 0 0-1.3.5c-1 3 .4 6 2.3 8.3a36.5 36.5 0 0 0 7 6.4c1 .7 1.9-.9 1-1.5a36.7 36.7 0 0 1-6.3-5.7c-1.7-1.9-3.1-4.4-2.3-7l-1.3.5a15.8 15.8 0 0 1 5.4 5.3 67.8 67.8 0 0 1 4.3 7.6c.5 1 2 0 1.5-1ZM134 159.7a17.8 17.8 0 0 0-9.4-7.7 6.5 6.5 0 0 0-3.1-.6 2.1 2.1 0 0 0-1.7 2.2 3.8 3.8 0 0 0 1.7 2.7 13.4 13.4 0 0 0 3 1.7 65 65 0 0 0 8.2 2.9.9.9 0 0 0 .5-1.7l-6-2a13.5 13.5 0 0 1-5.1-2.8c-.3-.3-1-1.3-.1-1.3a7.8 7.8 0 0 1 2.4.7 15.5 15.5 0 0 1 4.3 2.5 16 16 0 0 1 3.8 4.3.9.9 0 0 0 1.5-1ZM176.8 157.7A30 30 0 0 1 192 151l-1.1-.9c0 1.4-1.3 2.2-2.3 2.7a37.3 37.3 0 0 1-4.4 1.6q-4.7 1.5-9.5 2.6c-1.1.2-.6 2 .5 1.7q5.3-1.2 10.5-3c2.8-1 6.8-2 7-5.6a.9.9 0 0 0-1.2-.8 31.5 31.5 0 0 0-16 7.3c-1 .7.3 2 1.2 1.2ZM194.3 159.6a41 41 0 0 1 5.2-1.6c1.4-.4 3.2-1 4.4 0 0-.5-.2-.9-.3-1.3a2.8 2.8 0 0 1-1.7 1 23 23 0 0 1-2.7.7c-1.9.4-3.7-.3-5.6 0a1 1 0 0 0-1 .8.9.9 0 0 0 1 1 14.4 14.4 0 0 1 3.2 0 10.4 10.4 0 0 0 3.3-.1 21.4 21.4 0 0 0 2.8-.9 4 4 0 0 0 2.2-1.6 1 1 0 0 0-.3-1.2c-1.5-1-3.5-.7-5.1-.3a40.7 40.7 0 0 0-5.8 1.8 1 1 0 0 0-.6 1 .9.9 0 0 0 1 .7ZM216.4 153c5.6-1.1 11.7-1.8 17 1v-1.6a20.2 20.2 0 0 1-16.9.4 1 1 0 0 0-1.2.3.9.9 0 0 0 .3 1.2 22 22 0 0 0 18.7-.4.9.9 0 0 0 0-1.5c-5.8-3-12.3-2.3-18.4-1.2-1.1.2-.7 2 .5 1.7ZM208.9 161.2a22 22 0 0 1 14-1.8l-.5-1.5a4.8 4.8 0 0 1-1.5.8 17.8 17.8 0 0 1-1.9.6 33.5 33.5 0 0 1-3.9.7l-8.3 1.2a1 1 0 0 0-1 .8.9.9 0 0 0 1 1l9-1.3a30.8 30.8 0 0 0 4-.8 9.5 9.5 0 0 0 3.9-1.8.9.9 0 0 0-.4-1.4 24 24 0 0 0-15.3 2c-1 .5-.2 2 .9 1.5ZM108.4 140.7a21.3 21.3 0 0 0-8.1-8.3 3.8 3.8 0 0 0-2.6-.7 1.7 1.7 0 0 0-1.2 2.3 6 6 0 0 0 1.8 2.4l2.6 2.1 6.3 5a.9.9 0 0 0 1.2-.4 1 1 0 0 0-.3-1.2l-4.7-3.6a47.8 47.8 0 0 1-4.3-3.6 4.9 4.9 0 0 1-.8-1c0-.1 0-.3-.2-.4v.1l.6.1a9.2 9.2 0 0 1 1.1.6 19.4 19.4 0 0 1 3.8 3 19.6 19.6 0 0 1 3.3 4.5c.5 1 2 .1 1.5-.9ZM92 136c-3.5-3.7-8.7-4.5-13-6.7-1.2-.6-2.4-1.4-3.8-1.4s-2.8 1.2-1.8 2.6c1.4 2.2 4.4 3 6.7 3.7 3.4 1 6.9 1.9 10.3 2.7a.9.9 0 0 0 .5-1.7c-3-.8-6.2-1.5-9.2-2.4a35.8 35.8 0 0 1-4-1.3 10 10 0 0 1-1.5-.8c-.3-.2-1.4-.9-1.4-1.3v.5q-.3 0 0 0l.2-.2a1.4 1.4 0 0 1 .5 0 4 4 0 0 1 1.1.4l2 1L83 133c2.8 1 5.7 2.2 7.7 4.4.8.8 2-.4 1.3-1.3ZM62.7 159c-3.8-4.8-8.5-9.5-15-9.8a.9.9 0 0 0-.8 1 6.7 6.7 0 0 0 2.6 4 24.4 24.4 0 0 0 4 2.6c3 1.7 6.3 3.5 9.9 4a.9.9 0 0 0 .9-1 1 1 0 0 0-1-.8c-3-.4-5.9-2-8.6-3.6a28.6 28.6 0 0 1-3.5-2.2 10.6 10.6 0 0 1-1.5-1.3 3.9 3.9 0 0 1-1-1.8l-1 1c6 .1 10.3 4.8 13.8 9a.9.9 0 0 0 1.2 0 1 1 0 0 0 0-1.2ZM46.3 155.7c-.8-2.8-1.8-5.6-4.2-7.4-2.2-1.7-5-2.3-7.7-2.8a.9.9 0 0 0-1 .8 3.4 3.4 0 0 0 1.2 2.5L37 151l5.2 4.6c.9.8 2.1-.5 1.3-1.2l-4.7-4.2-2.3-2c-.5-.5-1.4-1.1-1.4-1.9l-1.1.9c2.4.4 5 1 7 2.4 2 1.5 2.9 4.1 3.6 6.5a.9.9 0 0 0 1.7-.4ZM39.6 158c-5.4-2.7-11.5-5.5-17.7-3.8a12.8 12.8 0 0 0-1.8.7 3.2 3.2 0 0 0-1.8 1.4c-.7 1.5 1.4 2.4 2.5 2.6 1.6.3 3.2.3 4.7.5l4.9.3a43.7 43.7 0 0 0 11-1c1.2-.2.7-2-.4-1.7a42.6 42.6 0 0 1-11 .9l-5.6-.4-2.6-.2c-.3 0-1.8-.3-1.8-.6l-.1.5c.1-.3.5-.4.7-.6a9.4 9.4 0 0 1 1.2-.4 12.2 12.2 0 0 1 2.2-.6 15.1 15.1 0 0 1 4.8.1 38.5 38.5 0 0 1 9.9 3.7c1 .5 2-1 .9-1.5Z"/><path d="M48 160.9a38.6 38.6 0 0 0-10.8-2 37.3 37.3 0 0 0-5.5.3 19.7 19.7 0 0 0-4.6 1 7.9 7.9 0 0 0-3.7 2.5 1.5 1.5 0 0 0 .2 2.3 7.7 7.7 0 0 0 2.5.7 33.7 33.7 0 0 0 11-.3 64.5 64.5 0 0 0 12.3-2.6c1-.3.6-2-.5-1.7a64.5 64.5 0 0 1-12.3 2.6 47.9 47.9 0 0 1-6.1.6 21.7 21.7 0 0 1-3-.2 15.3 15.3 0 0 1-2.8-.5v.5c.1-.7 1.2-1.4 1.8-1.7a9.8 9.8 0 0 1 2.4-1 28.1 28.1 0 0 1 5.9-.6 37 37 0 0 1 12.7 1.8c1 .3 1.5-1.4.4-1.7Z"/><path d="M51.1 163.2a76.7 76.7 0 0 0-18.1 1.4.9.9 0 0 0-.6 1c.7 1.9 3 1.8 4.7 1.9a62.2 62.2 0 0 0 6.3 0 80.7 80.7 0 0 1 12.7-.1.9.9 0 0 0 .8-1 1 1 0 0 0-.8-.8 71 71 0 0 0-11.6 0 84 84 0 0 1-8.6 0c-.3 0-1.7 0-1.8-.4l-.6 1A74.7 74.7 0 0 1 51 165c1.2 0 1.1-1.7 0-1.8ZM52 177.8c-6.2-3.4-12-9-19.5-7.9-.7.1-.8 1-.4 1.5a21.7 21.7 0 0 0 7.7 5 94.5 94.5 0 0 0 9.4 3.4.9.9 0 0 0 .5-1.7 93.7 93.7 0 0 1-9-3.3 20.5 20.5 0 0 1-7.4-4.6l-.4 1.4c3.3-.4 6.6.8 9.5 2.4 3 1.6 5.7 3.7 8.6 5.3 1 .6 2-1 1-1.5ZM162.3 132.5c.2-1.5.5-3.4 1.8-4.4a8.7 8.7 0 0 1 3-1l3.1-.7a23.3 23.3 0 0 1 3.2-.4c.2 0 .9 0 .9.3l-.8.6a17.7 17.7 0 0 1-5.1 2 25.3 25.3 0 0 0-6.5 2.8c-1 .6-.1 2.1.9 1.5a25.5 25.5 0 0 1 6.8-2.8c2-.6 4.5-1.2 6-2.9a1.9 1.9 0 0 0-.4-2.8c-1-.7-2.4-.4-3.6-.3l-4 .7a21.4 21.4 0 0 0-3.6 1c-2.3 1.1-3 3.6-3.4 5.9-.2 1.1 1.5 1.6 1.7.5ZM181.7 130.4c0-1.9 2.5-2.5 3.9-3l3-1.3 1.5-.6c.4-.1 0 0 0 0a.7.7 0 0 1 0 .1c0 .6-1.2 1-1.6 1.2l-2.8 1c-2 .8-4 1.3-6 1.9a.9.9 0 0 0 .6 1.7c2-.6 3.9-1.1 5.8-1.8l3-1.1a6.3 6.3 0 0 0 2.2-1.4 2.2 2.2 0 0 0 .5-2.2 1.7 1.7 0 0 0-2-1.2 8 8 0 0 0-1.3.6l-1.5.6-3 1.2c-2 .8-4 2-4 4.3a.9.9 0 0 0 1.7 0ZM201.1 122.5a7.6 7.6 0 0 1 1.4-4.5 13 13 0 0 1 1.5-1.8 22.7 22.7 0 0 1 1.3-1.4l.3-.2c.1-.1.1-.1 0 0h-.4q-.2-.3 0 0v.2a1.7 1.7 0 0 1 .2.5 2.8 2.8 0 0 1-.2 1 7.4 7.4 0 0 1-1.3 2.1l-3.7 4.7a1 1 0 0 0 0 1.2.9.9 0 0 0 1.2 0l3.5-4.4c1-1.3 2.2-2.7 2.2-4.4a3.3 3.3 0 0 0-.7-2.2 1.3 1.3 0 0 0-1.2-.5 2.3 2.3 0 0 0-1 .7 18.3 18.3 0 0 0-3.3 3.6 9.2 9.2 0 0 0-1.6 5.4c0 1.2 1.9 1.2 1.8 0ZM141.1 103.5a11.5 11.5 0 0 0-11.4-4.3 5.5 5.5 0 0 0-2.8 1.5 1.8 1.8 0 0 0-.6 1.6c.1.6.6.9 1.1 1.1a21 21 0 0 0 6.8 2.3 21.6 21.6 0 0 0 8.2-.3c1-.3.6-2-.5-1.7a19.3 19.3 0 0 1-7.3.3 20.5 20.5 0 0 1-3.6-1 17.7 17.7 0 0 1-1.7-.6l-.8-.4-.4-.2-.2-.2c-.1 0-.1 0 0 0l.1.5c0-.3 1-.8 1.2-.9a6.1 6.1 0 0 1 1.6-.4 9.3 9.3 0 0 1 3.3.2 9.7 9.7 0 0 1 5.5 3.5 1 1 0 0 0 1.2.3.9.9 0 0 0 .3-1.3Z"/><path d="M142.5 103.3c-1.5-2-1.6-4.6-1-7 .7-2.7 2.2-5.1 3.5-7.6l-1 .4c-.1 0 0-.1-.1 0v.3a4.4 4.4 0 0 1 0 .8 68.8 68.8 0 0 1-1.1 6.5l-.9 4.1a9.8 9.8 0 0 1-1.2 3.6c-.7.9.9 1.8 1.5.9a11.4 11.4 0 0 0 1.5-4.2 245.5 245.5 0 0 0 1.9-10.1c.1-1.3.4-3-1.1-3.6a.9.9 0 0 0-1 .4c-1.5 2.8-3.2 5.5-3.8 8.7a9.7 9.7 0 0 0 1.6 8 .9.9 0 0 0 1.3 0 1 1 0 0 0 0-1.2ZM47.7 187.6a29.2 29.2 0 0 0-17.7.2c-.6.3-1 1.3-.2 1.7 4.2 1.9 8.8 1.3 13.3 1.1q7.4-.3 14.8 0c1.1.1 1.1-1.6 0-1.7q-7.2-.3-14.4 0c-4.1 0-8.8.9-12.8-1l-.2 1.7a27.5 27.5 0 0 1 16.7-.3c1.1.4 1.6-1.3.5-1.7ZM40.5 182.4a6.8 6.8 0 0 0-3-3 15.1 15.1 0 0 0-3.8-1.8 15.3 15.3 0 0 0-8.3 0c-.7.1-1 1.2-.2 1.6a43.2 43.2 0 0 0 16.6 4.8.9.9 0 0 0 0-1.7 41 41 0 0 1-15.7-4.7l-.2 1.6a13.5 13.5 0 0 1 10.2 1.4c1 .5 2.2 1.2 2.6 2.2a1 1 0 0 0 1.1.6.9.9 0 0 0 .7-1ZM40.9 208a15.6 15.6 0 0 0-7 1 16 16 0 0 0-3.2 1.6 16.8 16.8 0 0 0-1.3 1.1 3.6 3.6 0 0 0-1.2 1.3 1.2 1.2 0 0 0 .5 1.6 4 4 0 0 0 1.8.2 39.7 39.7 0 0 0 4 0 41 41 0 0 0 16.1-4.4c1-.5.1-2-.9-1.5a39.4 39.4 0 0 1-10 3.4 38.6 38.6 0 0 1-5.2.7h-4.8q-.5 0 0 .2l.2.4a2.8 2.8 0 0 1 .3-.3l.6-.5a12.7 12.7 0 0 1 1.2-.9 14 14 0 0 1 2.8-1.3 14.3 14.3 0 0 1 6-.9c1.2.1 1.2-1.6 0-1.7Z"/><path d="m56.7 206.4-10.3-2.7c-2.8-.7-6.3-2.2-9-.6a.9.9 0 0 0-.2 1.4 22.4 22.4 0 0 0 6.4 4c2.7 1 5.5.6 8.3.2a.9.9 0 0 0 .6-1 1 1 0 0 0-1.1-.7c-2.4.4-5 .7-7.3-.2a20 20 0 0 1-5.7-3.5l-.2 1.3a5.2 5.2 0 0 1 3.8-.2l4.6 1.2 9.6 2.5a.9.9 0 0 0 .5-1.7ZM209.2 182.7a27.8 27.8 0 0 1 14.6-7.4 26.3 26.3 0 0 1 4.2-.3c.3 0 .6.1.2-.2-.3-.3-.2-.2-.3.1a3.4 3.4 0 0 1-.3.6 4.6 4.6 0 0 1-1.1 1.2 12.2 12.2 0 0 1-3.3 1.7l-4.5 1.4a62.7 62.7 0 0 1-10.7 1.9c-1.1.1-1.1 1.9 0 1.8a65.6 65.6 0 0 0 10.8-2 62 62 0 0 0 5-1.5 13.5 13.5 0 0 0 3.9-2 5.1 5.1 0 0 0 2.1-3.3c.1-2-2.5-1.5-3.7-1.4a29.5 29.5 0 0 0-9.3 2.2 29.2 29.2 0 0 0-8.8 6c-.9.7.4 2 1.2 1.2Z"/><path d="M228.3 180.2c2.4-1.3 4.2-3.4 6.3-5.2a20.2 20.2 0 0 1 7-3.8l2-.5c.3 0 .8-.3 1 .3.1 1-1.5 1.8-2.3 2.2a47.3 47.3 0 0 1-7.6 3.7 49 49 0 0 1-9.3 2.5.9.9 0 0 0-.6 1 1 1 0 0 0 1 .7 49.5 49.5 0 0 0 18-6.7c1.2-.7 2.4-1.6 2.5-3a2.2 2.2 0 0 0-2.4-2.6 16.6 16.6 0 0 0-4.5 1.3 22.2 22.2 0 0 0-4 2.1c-2.9 2-5 4.8-8 6.5a.9.9 0 0 0 .9 1.5ZM241.5 179a24.2 24.2 0 0 1 6.4-3.6 9.2 9.2 0 0 1 3.7-1 7 7 0 0 1 1.8.6l1 .3a3.8 3.8 0 0 1 .7.3l-.1-.7v.1l.6-.6-6.5 2.3a17.9 17.9 0 0 1-6.4 1.2c-1.2 0-1.2 1.7 0 1.8a18.9 18.9 0 0 0 6.6-1.2l6.7-2.4a.9.9 0 0 0 .7-.6c.1-.9-.4-1.4-1.2-1.6l-2.4-.9a7.3 7.3 0 0 0-4.7.3 26.7 26.7 0 0 0-8.2 4.5.9.9 0 0 0 0 1.2 1 1 0 0 0 1.3 0ZM216.2 187a4.8 4.8 0 0 1 3.4.4l3.7 1.4q3.7 1.5 7.3 3.2v-1.6a5.6 5.6 0 0 1-3 .5l-3.3-.1a28.4 28.4 0 0 1-6.7-1c-4.2-1.4-8-3.7-11.6-6-1-.7-1.9.9-.9 1.5a63.2 63.2 0 0 0 9.6 5.2 31.3 31.3 0 0 0 10.8 2.1c2 0 4.2.4 6-.6a.9.9 0 0 0 0-1.6q-3.9-1.8-7.9-3.4l-3.9-1.4a5.8 5.8 0 0 0-4-.2 1 1 0 0 0-.6 1 .9.9 0 0 0 1 .7ZM236 189.5a43.9 43.9 0 0 1 18.8 1.4v-1.7a24.6 24.6 0 0 1-21.1-1.9.9.9 0 0 0-.9 1.6 26.3 26.3 0 0 0 22.5 2 .9.9 0 0 0 0-1.7 46 46 0 0 0-19.8-1.5.9.9 0 0 0-.6 1.1 1 1 0 0 0 1 .7ZM226.4 205.8a24.5 24.5 0 0 1 6.6.8 23 23 0 0 1 3 1c.6.2 1.6.7 1.6 1.4l1.2-.9-7.8-1.5c-2.3-.5-4.8-.7-7-1.8-1-.6-1.9 1-.9 1.5 2.3 1.1 4.8 1.5 7.2 2l8 1.6a.9.9 0 0 0 1.1-.9c0-2.5-3.2-3.3-5.1-3.9a26.2 26.2 0 0 0-8-1 .9.9 0 0 0 0 1.7ZM212.8 200.8c2.5-1.8 5.8-2.6 8.8-3.3a16.5 16.5 0 0 1 5.2-.4c1 0 1.8.2 2.7.3l1.3.2a4.4 4.4 0 0 1 .5.1c.3.1.2.2.1-.1l.7-.9a59.8 59.8 0 0 1-17.3 1.6c-1.1 0-1.1 1.8 0 1.8a61.5 61.5 0 0 0 17.8-1.6.9.9 0 0 0 .6-.9 1.8 1.8 0 0 0-1.5-1.6l-3-.5a20.3 20.3 0 0 0-6.2 0 41.7 41.7 0 0 0-5.6 1.4 16.6 16.6 0 0 0-5 2.4 1 1 0 0 0-.3 1.2.9.9 0 0 0 1.2.3ZM194.9 203.5a25.6 25.6 0 0 1 11.8 1.6c3.5 1.4 6.7 3.7 10.5 4.4v-1.7a6.6 6.6 0 0 1-3.8-.1l-4.3-.9a56.9 56.9 0 0 1-8.3-2.4.9.9 0 0 0-1.1.6 1 1 0 0 0 .6 1 58.2 58.2 0 0 0 8.8 2.6l4.3 1a7.4 7.4 0 0 0 4.3-.1 1 1 0 0 0 .7-.9.9.9 0 0 0-.7-.8c-3.9-.7-7.1-3.1-10.8-4.5a26.9 26.9 0 0 0-12-1.6 1 1 0 0 0-1 .9.9.9 0 0 0 1 .9ZM200.2 193.6a20.1 20.1 0 0 1 13.3-.7l-.6-1c0-.1 0-.1 0 0h-.2l-.7.2-1.7.4a21.4 21.4 0 0 1-3 .5 10 10 0 0 1-5.8-1c-1-.5-1.9 1-.9 1.6a12 12 0 0 0 7.3 1.1 30.5 30.5 0 0 0 3.9-.7c1-.3 2.6-.4 2.8-1.7a1 1 0 0 0-.6-1 21.7 21.7 0 0 0-14.3.6 1 1 0 0 0-.6 1.1.9.9 0 0 0 1.1.6ZM166.6 176.3c1.5-1.9 3.2-3.8 5.5-4.7 2.4-1.1 4.8-.3 7.2.6q0-.9-.2-1.7c-4 2.6-8.8 3.5-13.4 4.4-1.1.2-.7 1.9.5 1.7 4.7-1 9.6-2 13.8-4.5a.9.9 0 0 0-.2-1.7c-2.7-1-5.4-1.7-8.2-.5-2.6 1-4.5 3-6.3 5.1-.7.9.5 2.1 1.3 1.3ZM177.5 179.4l1-2.4c.2-.6.4-1.3 1-1.6l2.4-.8 2.5-.8-1.1-.9a1.6 1.6 0 0 1-.2.8 2.7 2.7 0 0 1-.5.8 8.5 8.5 0 0 1-1.7 1.3l-4.8 2.9c-1 .5-.1 2 .9 1.5l5.3-3.1c1.4-1 2.8-2.3 2.7-4.2a.9.9 0 0 0-1-.8l-2.7.9a21.6 21.6 0 0 0-2.7.9 3.4 3.4 0 0 0-1.6 2l-1 2.6a1 1 0 0 0 .3 1.2.9.9 0 0 0 1.2-.3ZM114.5 167.5a27.6 27.6 0 0 0-10.7-.3 18 18 0 0 0-5 1.5 7.5 7.5 0 0 0-3 3.6.9.9 0 0 0 1 1.3c2.5-.7 5.3-.4 7.8-1a7 7 0 0 0 5-3.7 1 1 0 0 0-.3-1.2.9.9 0 0 0-1.2.3c-.8 1.8-2.6 2.6-4.4 3-2.5.5-5 .2-7.4.9l1 1.3a5.9 5.9 0 0 1 2.6-3 18.5 18.5 0 0 1 4.6-1.3 25.3 25.3 0 0 1 9.5.3c1.2.2 1.6-1.5.5-1.7Z"/><path d="M123 167.2c-4.7.1-10.6.7-12.8 5.6a.9.9 0 0 0 1 1.3 18.8 18.8 0 0 0 6.3-2.3c2-1 4-2.3 6-3.5a.9.9 0 0 0-.8-1.5l-6 3.4a17.7 17.7 0 0 1-6 2.2l1 1.3c2-4.3 7.2-4.6 11.3-4.8 1.2 0 1.2-1.8 0-1.7ZM119.4 189.7a3.9 3.9 0 0 0-3-1.8 28.2 28.2 0 0 0-5.2-.3c-2.9 0-6 .5-8.1 2.6a.9.9 0 0 0 .2 1.4c4.9 2.2 10.1.5 14.9-1.2 1-.4.6-2.1-.5-1.7-4.2 1.5-9.1 3.4-13.5 1.3l.2 1.4c1.7-1.6 4.2-2 6.5-2a27.6 27.6 0 0 1 4.3.1c.9.1 2.2.2 2.7 1 .5 1 2 .2 1.5-.8ZM113 194.4c-3.7-.8-7.5-1.6-11.2-1a11.2 11.2 0 0 0-7.6 4.7.9.9 0 0 0 .6 1.3c5 1.8 11 1.4 15.3-2a.9.9 0 0 0 0-1.2 1 1 0 0 0-1.3 0c-3.8 3-9.2 3-13.6 1.5l.6 1.3a9.6 9.6 0 0 1 6.6-3.9c3.4-.5 6.8.3 10 1 1.2.3 1.7-1.5.6-1.7ZM141.2 192.4a9.9 9.9 0 0 1 6 .3c1.4.5 3.1 1.2 3.7 2.6l.4-1a3.5 3.5 0 0 1-2.4.2c-.8 0-1.6-.2-2.5-.4a8 8 0 0 1-4.3-2.1c-.8-.9-2 .4-1.3 1.2a9.7 9.7 0 0 0 5.3 2.7l3 .4a4.5 4.5 0 0 0 3.1-.5.9.9 0 0 0 .4-1c-.8-2-2.6-3-4.6-3.7a11.8 11.8 0 0 0-7.2-.4c-1.1.3-.6 2 .4 1.7ZM158.7 200.6a13.3 13.3 0 0 1 12.6 1.4v-1.5c-4 2-8.5.3-12.2-1.5-1-.5-2 1-1 1.6 4.4 2 9.5 3.8 14.1 1.4a.9.9 0 0 0 0-1.5 15 15 0 0 0-14.4-1.5.9.9 0 0 0-.3 1.3 1 1 0 0 0 1.2.3Z"/><path d="m110.2 195-1.7 1.6a.9.9 0 0 0 0 1.3.9.9 0 0 0 .7.2 1 1 0 0 0 .6-.2l1.7-1.6a.9.9 0 0 0 0-1.3.9.9 0 0 0-.7-.3 1 1 0 0 0-.6.3ZM106.2 142.8a45.9 45.9 0 0 0-9.5.7c-2.4.5-5.3 1-6.6 3.3a.9.9 0 0 0 .3 1.2 16.3 16.3 0 0 0 5.8 1.2l6.2.5c1.8 0 3.5 0 4.9-1.4a10.2 10.2 0 0 0 2.3-4.8.9.9 0 0 0-1.7-.5 8.6 8.6 0 0 1-1.9 4c-1.2 1.2-2.8 1-4.3.8l-5.4-.4a14.4 14.4 0 0 1-5-.9l.3 1.2a4 4 0 0 1 2.3-1.7 23.7 23.7 0 0 1 3.7-.8 43.6 43.6 0 0 1 8.6-.6c1.2 0 1.2-1.7 0-1.8ZM130.8 134.1a39.9 39.9 0 0 0-10 .2 8.4 8.4 0 0 0-4 1.7 19 19 0 0 0-3 3 .9.9 0 0 0 .7 1.5h5.7a11.5 11.5 0 0 0 5-.8l2.2-1 2.2-1c1.4-.5 2.8-1.5 3-3 .3-1.1-1.5-1.6-1.7-.5-.2 1.4-1.7 1.8-2.8 2.2-1.4.5-2.6 1.3-3.9 1.9a10.9 10.9 0 0 1-4.5.5h-5.2l.6 1.5a19.3 19.3 0 0 1 2.7-2.8 7.2 7.2 0 0 1 3.6-1.5 40 40 0 0 1 9.4-.1.9.9 0 0 0 .9-.9 1 1 0 0 0-1-.9ZM181 86.2a17.8 17.8 0 0 1 5.9-3.8 18.8 18.8 0 0 1 3.4-1 16.1 16.1 0 0 1 1.6-.2l1-.1h.4c.5 0 0 0 0-.2v-.5c0 .3-.9.7-1.1.8a15.3 15.3 0 0 1-1.5.8 22.7 22.7 0 0 1-3 1.2l-7.2 1.8c-1.1.3-.6 2 .5 1.7a87 87 0 0 0 7-1.8 19.4 19.4 0 0 0 6-2.8 2.4 2.4 0 0 0 1-1 1.3 1.3 0 0 0-.6-1.5c-.8-.5-2-.3-3-.2a20.3 20.3 0 0 0-6 1.6 19.5 19.5 0 0 0-5.7 4c-.9.8.4 2 1.2 1.2ZM197 85c1.2-1.6 3.7-2 5.6-2.4a18 18 0 0 1 7.5-.4l-.5-1.3a3.4 3.4 0 0 1-2.2 1.8 18 18 0 0 1-4 .8 35.2 35.2 0 0 1-8.7-.3 1 1 0 0 0-1 .7.9.9 0 0 0 .6 1 36.3 36.3 0 0 0 9.8.3c2.5-.3 6-.8 7-3.4a.9.9 0 0 0-.5-1.3 20.3 20.3 0 0 0-8.7.4c-2.4.6-5 1.2-6.5 3.3a.9.9 0 0 0 .3 1.2 1 1 0 0 0 1.2-.3ZM194.4 93.2a36 36 0 0 1 8.1-.9c2.1 0 4.4.2 6 1.7l.4-1.4a43.6 43.6 0 0 1-4.4 0 26 26 0 0 0-4.2.7 10.3 10.3 0 0 1-7.4-1.4c-1-.6-1.9 1-1 1.6a12 12 0 0 0 8.2 1.6 38 38 0 0 1 4.4-.7 47.7 47.7 0 0 0 4.9-.1c.6-.1.8-1 .3-1.5-1.8-1.8-4.3-2.2-6.8-2.3a37.5 37.5 0 0 0-9 1c-1.1.3-.6 2 .5 1.7ZM144.1 64.4c-.8-2.9-1.5-6-.6-9a8.8 8.8 0 0 1 1.8-3.1 9.3 9.3 0 0 1 1.3-1.3 4.8 4.8 0 0 1 1.7-1h-.5v.1a2.8 2.8 0 0 0 .1.5 8.3 8.3 0 0 1 .3.9 8.5 8.5 0 0 1 0 1.7 10.3 10.3 0 0 1-.8 3.6 16.5 16.5 0 0 1-4 5.6c-1 .8.3 2 1.2 1.2 3.5-3.3 6.4-8 5.2-13-.3-1.3-.9-2.7-2.4-2.1a9 9 0 0 0-2.7 1.8 10.7 10.7 0 0 0-3.2 5.7c-.6 3 0 6 1 8.9a.9.9 0 0 0 1.6-.5ZM150 39c-.7-3.4 2.1-6.2 4.3-8.3l-1.5-1a30 30 0 0 1-3.1 8.7c-.6 1 1 2 1.5 1a31.6 31.6 0 0 0 3.4-9.1.9.9 0 0 0-1.5-.9c-2.7 2.7-5.7 6-4.8 10 .3 1.1 2 .7 1.7-.4ZM156.8 41.8a16.3 16.3 0 0 1 10.8-.3l-.2-1.7a16.2 16.2 0 0 1-3.6 1.1l-4 1c-2.5.5-5.2 1.4-7.8 1.1a.9.9 0 0 0-.9.9 1 1 0 0 0 .9.9c2.8.3 5.6-.7 8.2-1.3l4.2-.9a17.4 17.4 0 0 0 3.9-1.2.9.9 0 0 0-.2-1.6 17.9 17.9 0 0 0-11.8.3c-1 .4-.6 2.1.5 1.7ZM147 83.2a7 7 0 0 1 6.8 3.5l.6-1.3a14.7 14.7 0 0 1-3.5.1 16.7 16.7 0 0 1-3.5-.4c-2-.5-3.7-2-5.2-3.5-.8-.8-2 .5-1.2 1.3 1.7 1.6 3.5 3.3 6 4a18.6 18.6 0 0 0 3.8.4 16.9 16.9 0 0 0 4-.2.9.9 0 0 0 .6-1.3 8.8 8.8 0 0 0-8.3-4.4c-1.2.1-1.2 1.9 0 1.8ZM139.2 96.3a26.6 26.6 0 0 0-1.5-4.8 5 5 0 0 0-2.8-3c-2-.7-2.4 1.8-2.5 3.2a8 8 0 0 0 1.4 4.5 14.4 14.4 0 0 0 3.7 3.6.9.9 0 0 0 1.2-.3 1 1 0 0 0-.3-1.2c-2.3-1.7-4.7-4.3-4.1-7.4l.3-1-.2.2h.2a1.9 1.9 0 0 1 .4.3 4.2 4.2 0 0 1 1 1.5 23 23 0 0 1 1.4 4.9c.3 1 2 .6 1.8-.5ZM130.4 122.4a6.3 6.3 0 0 0-1.3-3.5l-2.6-3c-1.4-2.2-1.5-4.9-1.6-7.4l-1.3.8a19.7 19.7 0 0 1 7.4 13 .9.9 0 0 0 1 .5 1 1 0 0 0 .7-1 21.4 21.4 0 0 0-8.2-14 .9.9 0 0 0-1.4.7c.1 2.6.3 5.2 1.5 7.6a16.6 16.6 0 0 0 2.4 3 5.5 5.5 0 0 1 1.6 3.3c0 1 1.9 1.1 1.8 0ZM149.3 125.4c1-1.2 3.2-1.3 4.8-1.5a20.8 20.8 0 0 1 2.6-.3 6 6 0 0 1 1.3 0 4.5 4.5 0 0 1 .5.2l.6.3q.4.4.2-.5l-.2.1-.6.3a13.3 13.3 0 0 1-1.3.3 12.5 12.5 0 0 1-2.6.4 12.7 12.7 0 0 1-5.5-1 1 1 0 0 0-1.2.3.9.9 0 0 0 .3 1.2 14.6 14.6 0 0 0 11 .4c.9-.3 1.9-.7 1.8-1.7 0-1-1.1-1.5-2-1.8-1.7-.6-3.6-.2-5.4 0-2 .4-4.2.5-5.6 2-.7 1 .5 2.2 1.3 1.3ZM162 114.2l.4 1.8a.9.9 0 0 0 1 .6.9.9 0 0 0 .6-.4 1 1 0 0 0 .1-.7l-.4-1.8a.9.9 0 0 0-1.1-.6.9.9 0 0 0-.5.4 1 1 0 0 0-.1.7Z"/><path d="M147.4 124.6a7.6 7.6 0 0 0-3.7 9.2c.3.7.7 2 1.6 2.3.8.2 1.7-.6 2.2-1a7.1 7.1 0 0 0 2-4.4 11.5 11.5 0 0 0-1.2-6.3.9.9 0 0 0-1.2-.3 1 1 0 0 0-.3 1.2 9.5 9.5 0 0 1 .9 5.5 6 6 0 0 1-.8 2.1 4 4 0 0 1-.6.9 3 3 0 0 1-.4.3l-.3.1s-.3.1 0 .1l.4.1a3.4 3.4 0 0 1-.5-1 6.2 6.2 0 0 1-.4-1.2 5.7 5.7 0 0 1 .2-2.5 5.9 5.9 0 0 1 3-3.5c1-.5.1-2-.9-1.6ZM180.7 95.3a6 6 0 0 1 3.2-2.6c1.5-.7 3.2-1.2 4.8-1.8l.6-.2c-.1-.3-.3-.3-.3-.2v.1a2.6 2.6 0 0 1-.4.7 4.1 4.1 0 0 1-2 1.2l-5.7 1.5c-1.1.2-.6 2 .5 1.7l5.5-1.4a5.3 5.3 0 0 0 3.7-3 1.8 1.8 0 0 0-.5-2.1c-.8-.6-1.8 0-2.6.2-1.5.6-3.1 1.1-4.6 1.8a7.4 7.4 0 0 0-3.7 3.2c-.5 1 1 2 1.5 1ZM149.3 154.8c.1-2 2.6-2.6 4-3l3-.8a15.2 15.2 0 0 1 1.5-.3h.4c.1 0 0 0 0-.2l-.2.2a5.1 5.1 0 0 0-.2.4 2.9 2.9 0 0 1-.5.5 3.9 3.9 0 0 1-1 .5 10.7 10.7 0 0 1-2.9.6c-1.8.1-3.8.3-5.5-.5a1 1 0 0 0-1.3.3.9.9 0 0 0 .4 1.3 11.5 11.5 0 0 0 5.8.7c2-.2 4.2-.3 5.8-1.7a3.3 3.3 0 0 0 1.3-2.3 1.7 1.7 0 0 0-1.8-1.6 12.7 12.7 0 0 0-3 .6l-3.2 1c-2.1.6-4.2 1.8-4.4 4.3-.1 1.1 1.7 1.1 1.8 0ZM161.5 158.3a20 20 0 0 1 1.5-5.2 21 21 0 0 1 1.3-2.5l.7-1.1a15.6 15.6 0 0 1 .7-.8h-.5c.7 0 .6 1.5.5 2a17.5 17.5 0 0 1-1 2.5 6.7 6.7 0 0 1-2.6 3.7c-1 .5-.2 2 .9 1.5a7.5 7.5 0 0 0 3-3.5l.9-2.2a8.5 8.5 0 0 0 .6-2.8 3.5 3.5 0 0 0-.8-2.3 1.5 1.5 0 0 0-2.4 0 18.8 18.8 0 0 0-2.8 4.4 21.6 21.6 0 0 0-1.7 5.8 1 1 0 0 0 .6 1.1.9.9 0 0 0 1-.6Z"/><path d="m158.8 160.4 2.7-.5a18.6 18.6 0 0 1 2.7-.5 8.1 8.1 0 0 1 4.4 1.5v-1.5a11.7 11.7 0 0 1-10.5.5 1 1 0 0 0-1.2.3.9.9 0 0 0 .3 1.2 13.6 13.6 0 0 0 12.3-.5.9.9 0 0 0 0-1.5 10.1 10.1 0 0 0-5.1-1.8 16.2 16.2 0 0 0-3 .5l-3 .6c-1.1.2-.7 2 .4 1.7ZM147.9 154.9c-.8 1.8-1.6 4.1-.2 5.9a8 8 0 0 0 2.3 1.8 15.1 15.1 0 0 0 3 1.3.9.9 0 0 0 1-1.3l-4.4-7.7a.9.9 0 0 0-1.5.9l4.4 7.7 1-1.3a12.8 12.8 0 0 1-2.3-1 8 8 0 0 1-2-1.4c-1-1.1-.3-2.8.2-4a1 1 0 0 0-.3-1.2.9.9 0 0 0-1.2.3ZM225.2 143l.6-3.1a7 7 0 0 1 .8-2.6 11 11 0 0 1 2-2l2.5-2.3-1.4-.1c.9 1.8-.5 3.8-1.8 5.1-1.5 1.7-3.2 3.1-4.9 4.7-.8.8.5 2 1.3 1.2l3-2.7a31.5 31.5 0 0 0 2.5-2.6c1.6-1.9 2.5-4.3 1.5-6.6a.9.9 0 0 0-1.4-.2l-2.7 2.3a12 12 0 0 0-2.1 2.3 8 8 0 0 0-1 2.8c-.3 1.1-.5 2.3-.6 3.4a1 1 0 0 0 .6 1.1.9.9 0 0 0 1-.6ZM229.8 165.1c3.8-2.5 8.5-.5 12.2 1.1v-1.5a10 10 0 0 1-4 .7c-1.4 0-2.9.2-4.3.4-2.7.3-5.7.7-8.1-.7a.9.9 0 0 0-1 1.5c2.8 1.7 6 1.4 9 1 1.7-.3 3.2-.4 4.8-.5a11.4 11.4 0 0 0 4.5-.9.9.9 0 0 0 0-1.5c-4.3-2-9.6-4-14-1.1-1 .6 0 2.1.9 1.5ZM145.3 179.5a9.5 9.5 0 0 0 7.4 9.1.9.9 0 0 0 1-.8c0-1.8 0-3.9-1.1-5.4a5.9 5.9 0 0 0-2.2-1.9c-.9-.4-1.7-.7-2.5-1.2-1-.6-1.9.9-1 1.5 1.4.8 3.2 1.2 4.1 2.5 1 1.2 1 3 1 4.5l1.1-.9a7.7 7.7 0 0 1-6-7.4.9.9 0 0 0-1.8 0Z"/><path d="m148.6 179.2.9-2.6.4-1.2v-.1l.2-.2v-.1l.2-.1.2-.2h.4a4 4 0 0 1 .5 0 3.8 3.8 0 0 1 .4 0 8.1 8.1 0 0 0 2.5.2l-1.1-.9V174.3l-.2.5a3.5 3.5 0 0 1-.4.7 4.8 4.8 0 0 1-1.1 1.3 11 11 0 0 1-4 1.5.9.9 0 0 0 .5 1.7 11.6 11.6 0 0 0 4.7-2 5.6 5.6 0 0 0 2.2-4 .9.9 0 0 0-1-.9h-1.1l-1.2-.2a3.2 3.2 0 0 0-2.5.6 4.9 4.9 0 0 0-1.2 2.3l-1 3a.9.9 0 0 0 1.7.4ZM155.1 179c3.2-.5 7.7-.7 9.3 2.8l.5-1.3c-3.8.8-8 1.7-11.5-.7-1-.7-1.8.9-.9 1.5 3.8 2.7 8.7 1.8 12.9 1a.9.9 0 0 0 .5-1.4 7 7 0 0 0-4.1-3.5 15 15 0 0 0-6.7-.3 1 1 0 0 0-.9 1 .9.9 0 0 0 1 .8ZM84.3 207.3c-1.6-1.7-4-2-6.1-1.7a32.1 32.1 0 0 0-8 2 .9.9 0 0 0-.5 1.3 3.6 3.6 0 0 0 3 1.4 44.6 44.6 0 0 0 4.4 0 31.3 31.3 0 0 0 4.2-.3 3.8 3.8 0 0 0 2.8-1.7.9.9 0 0 0-1.5-.9 2.5 2.5 0 0 1-2 1l-3.5.2h-3.4c-.7 0-2 0-2.5-.6l-.5 1.3a32.2 32.2 0 0 1 7.2-1.9c1.7-.2 3.9-.3 5.2 1.1.8.8 2-.4 1.2-1.2Z"/><path d="M76.9 211.1c-2.5.8-5 1.7-6.7 3.8a18.5 18.5 0 0 0-3 6.8.9.9 0 0 0 .8 1 8 8 0 0 0 5.1-.6 14.9 14.9 0 0 0 3.6-3.4 24 24 0 0 0 4.5-8.6.9.9 0 0 0-1.7-.5 21.8 21.8 0 0 1-4 7.7 15.6 15.6 0 0 1-3 3c-1.3 1-3 .9-4.5.7l.8 1.1a16.7 16.7 0 0 1 2.6-6c1.5-1.8 3.7-2.6 6-3.2 1-.4.6-2.1-.5-1.8ZM56.3 196.5c-4-1.6-8.3-3.2-12.7-3a9.7 9.7 0 0 0-3.2.3 1.2 1.2 0 0 0 0 2.3 18.6 18.6 0 0 0 3.1 1l3.2.9a51 51 0 0 0 7.5 1.1c1.2.1 1.2-1.7 0-1.7a47.6 47.6 0 0 1-6.7-1l-3.2-.9-1.6-.5c-.3 0-.6-.2-.8-.3l-.6-.2.1.4v-.1l-.2.6h.7l.9-.2a16.7 16.7 0 0 1 2 0 20.8 20.8 0 0 1 3.7.6 51.4 51.4 0 0 1 7.3 2.4.9.9 0 0 0 1.1-.6 1 1 0 0 0-.6-1ZM39.5 197.3a13.2 13.2 0 0 0-5.1-2.3 26.9 26.9 0 0 0-6.2-1.2c-.9 0-2.3-.1-2.9.7a1.9 1.9 0 0 0 .6 2.4c1.6 1.4 3.7 1 5.6 1.3a.9.9 0 0 0 1-1 1 1 0 0 0-1-.8c-1.3-.2-3 .2-4.2-.7a1.6 1.6 0 0 1-.2-.2l-.2-.2c0-.2-.2 0-.3.4a5.8 5.8 0 0 0 1-.1 12.6 12.6 0 0 1 2.5.2 42.3 42.3 0 0 1 4.4 1 10.2 10.2 0 0 1 3.7 1.8 1 1 0 0 0 1.3 0 .9.9 0 0 0 0-1.3ZM68.7 189.2a13 13 0 0 0-7.3-4 35.4 35.4 0 0 0-5-.6 12.5 12.5 0 0 0-4.7.2.9.9 0 0 0-.4 1.5 6.7 6.7 0 0 0 2.5 1.7.9.9 0 0 0 1.1-.6 1 1 0 0 0-.6-1.1 4.8 4.8 0 0 1-1.7-1.3l-.4 1.5a11.3 11.3 0 0 1 4.3-.1 32.2 32.2 0 0 1 4.4.5 11.4 11.4 0 0 1 6.5 3.6c.8.9 2-.4 1.3-1.3ZM92.4 180.3a14 14 0 0 0-3.3-4.7 6.2 6.2 0 0 0-2.7-1.3 12.3 12.3 0 0 1-3.2-.6.9.9 0 0 0-1.3.7 7 7 0 0 0 4.5 6.6.9.9 0 0 0 1-.7 1 1 0 0 0-.6-1 5.2 5.2 0 0 1-3.1-4.9l-1.4.8a9.3 9.3 0 0 0 3.2.7 4.5 4.5 0 0 1 2.3 1 12.5 12.5 0 0 1 3 4.3c.5 1 2 .1 1.6-.9ZM90.5 168.2c-.4-.9-.4-2-.8-2.9a4.3 4.3 0 0 0-2.3-2 58 58 0 0 0-7-2.7.9.9 0 0 0-1.2.8c0 2.4 2 3.8 4 4.7l7 3a.9.9 0 0 0 1.2-.6 1 1 0 0 0-.7-1.1l-6.2-2.6c-1.4-.6-3.5-1.5-3.5-3.4l-1.1.9a56.8 56.8 0 0 1 6.5 2.5c.8.3 1.6.7 1.8 1.5a14.8 14.8 0 0 0 .8 2.8c.5 1 2 .1 1.5-.9ZM47.4 325.1v7.5H17v-43.9h29.9v7.5H25.5v10.6H44v6.9H25.5v11.4h21.9zM71 288.7 81.9 305l10.9-16.3h9.2L86.4 311l15.1 21.6h-9.2l-10.4-15.7-10.4 15.7h-9.3L77.3 311l-15.6-22.3H71zM151.6 296.2h-14.1v36.4h-8.4v-36.4H115v-7.5h36.6v7.5zM186 332.9a20 20 0 0 1-8.7-1.9 21.4 21.4 0 0 1-6.7-5 23.2 23.2 0 0 1-6-15.4 22 22 0 0 1 1.7-8.4 23.2 23.2 0 0 1 4.5-7 21.5 21.5 0 0 1 6.8-5 20.3 20.3 0 0 1 8.6-1.8 19.3 19.3 0 0 1 8.7 2 21.7 21.7 0 0 1 6.7 5 23.5 23.5 0 0 1 4.3 7.2 22.6 22.6 0 0 1 1.6 8.2 22.2 22.2 0 0 1-1.6 8.3 22.8 22.8 0 0 1-4.5 7 21.4 21.4 0 0 1-6.8 5 20.3 20.3 0 0 1-8.6 1.8Zm-12.7-22.2a17.7 17.7 0 0 0 .9 5.5 14.7 14.7 0 0 0 2.5 4.7 12.4 12.4 0 0 0 4 3.2 12.4 12.4 0 0 0 10.9 0 12.4 12.4 0 0 0 4-3.4 15 15 0 0 0 2.5-4.7 17.5 17.5 0 0 0 .8-5.3 17.1 17.1 0 0 0-.9-5.5 15.2 15.2 0 0 0-2.5-4.7 12 12 0 0 0-4-3.3 12.5 12.5 0 0 0-10.9 0 12.2 12.2 0 0 0-4 3.4 15 15 0 0 0-2.5 4.7 17.6 17.6 0 0 0-.8 5.3ZM226.4 332.6v-43.9h8.5v36.4h22.4v7.5h-30.9zM33.8 387a28.5 28.5 0 0 1-3.1 1.2 13.2 13.2 0 0 1-4 .6 9.1 9.1 0 0 1-2.5-.3 5.5 5.5 0 0 1-2-1.1 5.2 5.2 0 0 1-1.4-2 7 7 0 0 1-.6-2.8v-14.3H17v-5h3.2v-8h6.4v8H32v5h-5.3v12.2a2.3 2.3 0 0 0 .7 1.9 2.6 2.6 0 0 0 1.7.5 5.9 5.9 0 0 0 2-.3l1.5-.6ZM56.8 368.9a12.6 12.6 0 0 0-5.2 1.1 6.6 6.6 0 0 0-3.3 3.2v15.2H42v-25h5.9v5.3a11.4 11.4 0 0 1 1.6-2.3 12 12 0 0 1 2-1.8 9 9 0 0 1 2-1.2 5.9 5.9 0 0 1 2.1-.4h.8a2.5 2.5 0 0 1 .5 0ZM75.5 388.8a13.9 13.9 0 0 1-5.4-1 12.3 12.3 0 0 1-6.8-6.9 13.2 13.2 0 0 1-1-4.9 14 14 0 0 1 1-5 12.3 12.3 0 0 1 2.6-4.2A12.5 12.5 0 0 1 70 364a14 14 0 0 1 5.6-1 13.6 13.6 0 0 1 5.4 1 12.6 12.6 0 0 1 4.1 2.8 12 12 0 0 1 2.6 4 13.7 13.7 0 0 1 .9 5v1.1a5 5 0 0 1-.2 1H69.1a7.4 7.4 0 0 0 .7 2.6 6.4 6.4 0 0 0 3.6 3.2 6.7 6.7 0 0 0 2.3.5 7.4 7.4 0 0 0 3.6-1 5 5 0 0 0 2.4-2.4l5.5 1.5a11.2 11.2 0 0 1-4.5 4.7 13.7 13.7 0 0 1-7.2 1.8Zm6.5-15a6.7 6.7 0 0 0-2-4.6 6.5 6.5 0 0 0-9 0 6.6 6.6 0 0 0-1.3 2 6.9 6.9 0 0 0-.7 2.6ZM108.9 388.8a13.9 13.9 0 0 1-5.5-1 12.3 12.3 0 0 1-6.8-6.9 13.2 13.2 0 0 1-.9-4.9 14 14 0 0 1 1-5 12.3 12.3 0 0 1 2.5-4.2 12.6 12.6 0 0 1 4.2-2.8 14 14 0 0 1 5.5-1 13.6 13.6 0 0 1 5.5 1 12.6 12.6 0 0 1 4 2.8 12 12 0 0 1 2.7 4 13.7 13.7 0 0 1 .8 5v1.1a5 5 0 0 1-.1 1h-19.3a7.4 7.4 0 0 0 .7 2.6 6.4 6.4 0 0 0 3.5 3.2 6.7 6.7 0 0 0 2.4.5 7.4 7.4 0 0 0 3.6-1 5 5 0 0 0 2.3-2.4l5.5 1.5a11.2 11.2 0 0 1-4.4 4.7 13.7 13.7 0 0 1-7.2 1.8Zm6.5-15a6.6 6.6 0 0 0-2.1-4.6 6.5 6.5 0 0 0-8.9 0 6.6 6.6 0 0 0-1.4 2 7 7 0 0 0-.6 2.6ZM145.3 375.9a13.6 13.6 0 0 1 .9-5 12 12 0 0 1 2.6-4.1 12.8 12.8 0 0 1 4.2-2.8 13.8 13.8 0 0 1 5.5-1 13.2 13.2 0 0 1 7 1.7 11.3 11.3 0 0 1 4.3 4.6l-6.3 2a5.6 5.6 0 0 0-2.1-2.2 6 6 0 0 0-3-.7 6.1 6.1 0 0 0-2.6.5 6.4 6.4 0 0 0-2 1.5 7.1 7.1 0 0 0-1.4 2.4 9 9 0 0 0-.5 3 8.5 8.5 0 0 0 .5 3.1 7.7 7.7 0 0 0 1.4 2.4 6.2 6.2 0 0 0 2 1.6 6 6 0 0 0 2.6.5 6.1 6.1 0 0 0 3.2-.9 4.8 4.8 0 0 0 2-2l6.3 1.8a10.5 10.5 0 0 1-4.3 4.7 13.3 13.3 0 0 1-7.1 1.8 13.7 13.7 0 0 1-5.5-1 12.4 12.4 0 0 1-6.8-7 13.4 13.4 0 0 1-1-5ZM185.4 388.8a9.5 9.5 0 0 1-3.4-.6 8.1 8.1 0 0 1-2.7-1.6 7.8 7.8 0 0 1-1.8-2.5 7.6 7.6 0 0 1-.7-3.2 7 7 0 0 1 .8-3.3 7.5 7.5 0 0 1 2.2-2.5 10.9 10.9 0 0 1 3.4-1.7 14.7 14.7 0 0 1 4.3-.6 18.5 18.5 0 0 1 3.2.3 13.4 13.4 0 0 1 2.9.8v-1.4a5 5 0 0 0-1.4-3.8 5.9 5.9 0 0 0-4.2-1.3 11 11 0 0 0-4 .7 18.1 18.1 0 0 0-3.8 2l-2-4a18.5 18.5 0 0 1 10.4-3.2q5.4 0 8.4 2.7t3 7.6v7.8a2.3 2.3 0 0 0 .3 1.4 1.6 1.6 0 0 0 1.2.5v5.5a14.2 14.2 0 0 1-2.8.3 4.3 4.3 0 0 1-2.8-.8 3.5 3.5 0 0 1-1.2-2.2l-.2-1.4a11 11 0 0 1-4 3.4 11.7 11.7 0 0 1-5.1 1.1Zm1.8-4.6a8.3 8.3 0 0 0 3-.6 5.6 5.6 0 0 0 2.3-1.5 2.3 2.3 0 0 0 1-1.9v-2.8a15.8 15.8 0 0 0-2.4-.7 13.4 13.4 0 0 0-2.6-.3 6.8 6.8 0 0 0-4 1.1 3.4 3.4 0 0 0-1.6 2.9 3.4 3.4 0 0 0 1.2 2.7 4.5 4.5 0 0 0 3 1ZM225.6 368.9a12.6 12.6 0 0 0-5.2 1.1 6.6 6.6 0 0 0-3.3 3.2v15.2h-6.4v-25h5.9v5.3a11.4 11.4 0 0 1 1.6-2.3 12 12 0 0 1 2-1.8 9.1 9.1 0 0 1 2-1.2 5.9 5.9 0 0 1 2.1-.4h.8a2.5 2.5 0 0 1 .5 0ZM244.3 388.8a13.9 13.9 0 0 1-5.4-1 12.3 12.3 0 0 1-6.8-6.9 13.2 13.2 0 0 1-1-5 14 14 0 0 1 1-5 12.3 12.3 0 0 1 2.6-4 12.5 12.5 0 0 1 4.1-3 14 14 0 0 1 5.6-1 13.6 13.6 0 0 1 5.4 1 12.6 12.6 0 0 1 4.1 2.9 12 12 0 0 1 2.6 4 13.7 13.7 0 0 1 .9 5v1.1a4.8 4.8 0 0 1-.2 1H238a7.4 7.4 0 0 0 .7 2.6 6.4 6.4 0 0 0 3.6 3.2 6.8 6.8 0 0 0 2.3.5 7.4 7.4 0 0 0 3.6-1 5 5 0 0 0 2.4-2.4l5.4 1.5a11.2 11.2 0 0 1-4.4 4.7 13.7 13.7 0 0 1-7.2 1.8Zm6.5-15a6.7 6.7 0 0 0-2-4.6 6.5 6.5 0 0 0-9 0 6.6 6.6 0 0 0-1.3 2 6.9 6.9 0 0 0-.7 2.6ZM64 224a.6.6 0 0 0-.7 0 3.3 3.3 0 0 1-.6.5c-1.2.8-2.5 1.5-3.9 2.2a.6.6 0 0 0 0 1q3.6 3 7.6 5.8a.6.6 0 0 0 .7-.1 54.3 54.3 0 0 1 4-4h.2q-3.8-2.6-7.2-5.4ZM125.2 17.2c-.1-.3-.5-.5-.7-.7a.7.7 0 0 0-.6-.3A120.2 120.2 0 0 0 16 135.6h.2c1.2 1.1 3.3 1 4.8 1.8a.8.8 0 0 0 1.2-.7v-.9a113.6 113.6 0 0 1 33.4-80.6 109.7 109.7 0 0 1 68.5-32.7.8.8 0 0 0 .6-.3c.9-1.4.8-3.4.4-5ZM246.7 166.4a7.4 7.4 0 0 0 4.7 2.6.5.5 0 0 0 .6-.4c3.4-10.7 4.5-20.4 4.5-32.8a119.9 119.9 0 0 0-35.2-85c-19-19-43.1-31.5-71.3-34.4a.7.7 0 0 0-.5.2 9.3 9.3 0 0 0-1.6 5.1.6.6 0 0 0 .5.7A109.3 109.3 0 0 1 217 55.2a113.6 113.6 0 0 1 33.4 80.6c0 11.4-1 20.3-3.8 30a.7.7 0 0 0 .2.6ZM221.3 212.2l-4.4 4.2a114 114 0 0 1-130.7 21.8.4.4 0 0 0-.5 0c-1.5 1.3-3.1 2.4-4.8 3.5a.4.4 0 0 0 0 .8 120 120 0 0 0 140.4-21.7l6.8-7c0-.5-4-2-6.8-1.6Z"/><path d="M250.1 210a6.2 6.2 0 0 0-3-1 25 25 0 0 0-3.3-.5l-.6.1a129.1 129.1 0 0 1-198.3 18.9c-2.5-2.5-4.9-5.1-7.2-7.9a1 1 0 0 0-1.1-.3 17.2 17.2 0 0 0-4.8 2.7 1 1 0 0 0-.2 1.4q4 4.7 8.3 9.1a136.2 136.2 0 0 0 210.4-21.8.5.5 0 0 0-.2-.7ZM124 1.4a1.1 1.1 0 0 0-1-.8A136.3 136.3 0 0 0 12 192.4a1 1 0 0 0 1.1.6 15.7 15.7 0 0 0 5.2-2 1 1 0 0 0 .3-1.2A129.2 129.2 0 0 1 45 44.8a131.1 131.1 0 0 1 78.7-37 1 1 0 0 0 1-1 20.2 20.2 0 0 0-.5-5.4ZM257.2 182.6a40.3 40.3 0 0 0 5 3.8c.3.2.6.2.8 0A136.3 136.3 0 0 0 140.3 0a1.4 1.4 0 0 0-1.4 1.5l.3 4.4a1.4 1.4 0 0 0 1.4 1.2 129.2 129.2 0 0 1 116.4 175c0 .1 0 .3.2.5Z"/></svg>